<?xml version="1.0" encoding="utf-8"?>
<!-- Generator: Adobe Illustrator 26.2.1, SVG Export Plug-In . SVG Version: 6.00 Build 0)  -->
<svg version="1.1" id="Capa_1" xmlns="http://www.w3.org/2000/svg" xmlns:xlink="http://www.w3.org/1999/xlink" x="0px" y="0px"
	 viewBox="0 0 481.47 157.66" style="enable-background:new 0 0 481.47 157.66;" xml:space="preserve">
<style type="text/css">
	.st0{fill:#00B963;}
</style>
<g>
	<g>
		<g>
			<path d="M114.1,113.6H68.88c-5.98,0-10.83-4.85-10.83-10.83V57.55c0-5.98,4.85-10.83,10.83-10.83h45.22
				c5.98,0,10.83,4.85,10.83,10.83v45.22C124.93,108.76,120.08,113.6,114.1,113.6z"/>
		</g>
		<g>
			<path class="st0" d="M125.65,102.47H80.42c-5.98,0-10.83-4.85-10.83-10.83V46.42c0-5.98,4.85-10.83,10.83-10.83h45.22
				c5.98,0,10.83,4.85,10.83,10.83v45.22C136.47,97.62,131.63,102.47,125.65,102.47z"/>
		</g>
		<g>
			<path d="M103.04,51.78c-0.51,0-1.02-0.2-1.41-0.59c-0.78-0.78-0.78-2.05,0-2.83l22.14-22.14c0.78-0.78,2.05-0.78,2.83,0
				c0.78,0.78,0.78,2.05,0,2.83L104.45,51.2C104.06,51.59,103.55,51.78,103.04,51.78z"/>
		</g>
		<g>
			<circle class="st0" cx="127.93" cy="24.89" r="6.55"/>
		</g>
	</g>
</g>
<g>
	<g>
		<path d="M166.88,69.79c0-1.3-0.04-2.52-0.12-3.66c-0.08-1.14-0.12-2.17-0.12-3.11h4.51c0,0.77,0.02,1.54,0.06,2.31
			c0.04,0.77,0.06,1.56,0.06,2.38h0.12c0.32-0.69,0.78-1.36,1.37-2.01s1.29-1.23,2.1-1.74c0.81-0.51,1.73-0.91,2.74-1.22
			c1.01-0.3,2.11-0.46,3.29-0.46c1.54,0,2.83,0.19,3.87,0.58s1.9,0.85,2.59,1.4c0.69,0.55,1.23,1.14,1.61,1.77s0.7,1.19,0.94,1.67
			c1.06-1.71,2.27-3.04,3.66-3.99c1.38-0.95,3.17-1.43,5.36-1.43c2.03,0,3.74,0.27,5.12,0.82c1.38,0.55,2.5,1.34,3.35,2.38
			c0.85,1.04,1.46,2.29,1.83,3.78c0.37,1.48,0.55,3.14,0.55,4.96v17.3h-4.75V74.48c0-0.97-0.1-1.93-0.3-2.86
			c-0.2-0.93-0.57-1.77-1.1-2.5c-0.53-0.73-1.24-1.32-2.13-1.77c-0.89-0.45-2.03-0.67-3.41-0.67c-1.02,0-1.97,0.2-2.86,0.61
			c-0.89,0.41-1.68,0.97-2.35,1.71c-0.67,0.73-1.2,1.61-1.58,2.65c-0.39,1.04-0.58,2.18-0.58,3.44v16.45h-4.75V75.39
			c0-3.17-0.43-5.41-1.28-6.73c-0.85-1.32-2.25-1.98-4.2-1.98c-1.54,0-2.87,0.26-3.99,0.79c-1.12,0.53-2.03,1.28-2.74,2.25
			c-0.71,0.97-1.24,2.13-1.58,3.47c-0.35,1.34-0.52,2.82-0.52,4.45v13.89h-4.75V69.79z"/>
	</g>
	<g>
		<path d="M244.25,86.36c-1.71,2.19-3.57,3.73-5.61,4.6c-2.03,0.87-4.39,1.31-7.07,1.31c-2.23,0-4.24-0.4-6.03-1.19
			c-1.79-0.79-3.3-1.86-4.54-3.2c-1.24-1.34-2.19-2.92-2.86-4.75c-0.67-1.83-1-3.78-1-5.85c0-2.19,0.37-4.21,1.1-6.06
			c0.73-1.85,1.75-3.43,3.05-4.75c1.3-1.32,2.84-2.34,4.63-3.08c1.79-0.73,3.74-1.1,5.85-1.1c1.99,0,3.82,0.33,5.48,1
			c1.66,0.67,3.1,1.65,4.29,2.92c1.2,1.28,2.12,2.84,2.77,4.69c0.65,1.85,0.97,3.95,0.97,6.31v1.52h-23.03
			c0.08,1.22,0.38,2.39,0.88,3.5c0.51,1.12,1.17,2.09,1.98,2.92c0.81,0.83,1.77,1.49,2.86,1.98s2.29,0.73,3.59,0.73
			c2.07,0,3.82-0.37,5.24-1.1c1.42-0.73,2.7-1.81,3.84-3.23L244.25,86.36z M240.17,74.72c-0.08-2.44-0.87-4.39-2.38-5.85
			c-1.5-1.46-3.57-2.19-6.21-2.19c-2.64,0-4.77,0.73-6.4,2.19c-1.62,1.46-2.6,3.41-2.92,5.85H240.17z"/>
	</g>
	<g>
		<path d="M252.66,69.79c0-1.3-0.04-2.52-0.12-3.66c-0.08-1.14-0.12-2.17-0.12-3.11h4.51c0,0.77,0.02,1.54,0.06,2.31
			c0.04,0.77,0.06,1.56,0.06,2.38h0.12c0.32-0.69,0.78-1.36,1.37-2.01s1.29-1.23,2.1-1.74c0.81-0.51,1.73-0.91,2.74-1.22
			c1.01-0.3,2.11-0.46,3.29-0.46c1.54,0,2.83,0.19,3.87,0.58s1.9,0.85,2.59,1.4c0.69,0.55,1.23,1.14,1.61,1.77s0.7,1.19,0.94,1.67
			c1.06-1.71,2.27-3.04,3.66-3.99c1.38-0.95,3.17-1.43,5.36-1.43c2.03,0,3.74,0.27,5.12,0.82c1.38,0.55,2.5,1.34,3.35,2.38
			c0.85,1.04,1.46,2.29,1.83,3.78c0.37,1.48,0.55,3.14,0.55,4.96v17.3h-4.75V74.48c0-0.97-0.1-1.93-0.3-2.86
			c-0.2-0.93-0.57-1.77-1.1-2.5c-0.53-0.73-1.24-1.32-2.13-1.77c-0.89-0.45-2.03-0.67-3.41-0.67c-1.02,0-1.97,0.2-2.86,0.61
			c-0.89,0.41-1.68,0.97-2.35,1.71c-0.67,0.73-1.2,1.61-1.58,2.65c-0.39,1.04-0.58,2.18-0.58,3.44v16.45h-4.75V75.39
			c0-3.17-0.43-5.41-1.28-6.73c-0.85-1.32-2.25-1.98-4.2-1.98c-1.54,0-2.87,0.26-3.99,0.79c-1.12,0.53-2.03,1.28-2.74,2.25
			c-0.71,0.97-1.24,2.13-1.58,3.47c-0.35,1.34-0.52,2.82-0.52,4.45v13.89h-4.75V69.79z"/>
	</g>
	<g>
		<path d="M302.92,77.28c0-2.23,0.39-4.26,1.16-6.09c0.77-1.83,1.83-3.4,3.17-4.72c1.34-1.32,2.94-2.34,4.81-3.08
			c1.87-0.73,3.9-1.1,6.09-1.1s4.22,0.37,6.09,1.1c1.87,0.73,3.47,1.76,4.81,3.08c1.34,1.32,2.4,2.89,3.17,4.72
			c0.77,1.83,1.16,3.86,1.16,6.09c0,2.23-0.39,4.26-1.16,6.09c-0.77,1.83-1.83,3.4-3.17,4.72c-1.34,1.32-2.95,2.34-4.81,3.08
			s-3.9,1.1-6.09,1.1s-4.22-0.37-6.09-1.1c-1.87-0.73-3.47-1.76-4.81-3.08c-1.34-1.32-2.4-2.89-3.17-4.72
			C303.3,81.55,302.92,79.52,302.92,77.28z M308.03,77.28c0,1.5,0.23,2.89,0.7,4.17c0.47,1.28,1.15,2.4,2.04,3.35
			c0.89,0.96,1.96,1.71,3.2,2.25c1.24,0.55,2.63,0.82,4.17,0.82c1.54,0,2.93-0.27,4.17-0.82c1.24-0.55,2.3-1.3,3.2-2.25
			c0.89-0.95,1.57-2.07,2.04-3.35s0.7-2.67,0.7-4.17c0-1.5-0.23-2.89-0.7-4.17s-1.15-2.4-2.04-3.35c-0.89-0.95-1.96-1.71-3.2-2.25
			c-1.24-0.55-2.63-0.82-4.17-0.82c-1.54,0-2.93,0.27-4.17,0.82c-1.24,0.55-2.31,1.3-3.2,2.25c-0.89,0.96-1.58,2.07-2.04,3.35
			C308.27,74.39,308.03,75.78,308.03,77.28z"/>
	</g>
	<g>
		<path d="M364.45,86.48h-0.12c-0.89,1.62-2.31,3-4.23,4.11c-1.93,1.12-4.17,1.68-6.73,1.68c-1.99,0-3.86-0.38-5.6-1.13
			c-1.75-0.75-3.26-1.8-4.54-3.14s-2.28-2.92-3.02-4.75c-0.73-1.83-1.1-3.82-1.1-5.97c0-2.15,0.37-4.14,1.1-5.97
			c0.73-1.83,1.75-3.41,3.05-4.75c1.3-1.34,2.87-2.39,4.72-3.14c1.85-0.75,3.89-1.13,6.12-1.13c2.07,0,3.97,0.43,5.7,1.28
			c1.73,0.85,3.24,2.05,4.54,3.59h0.12V45.48h4.75v46.06h-4.75V86.48z M364.45,77.28c0-1.5-0.23-2.89-0.7-4.17s-1.15-2.4-2.04-3.35
			c-0.89-0.95-1.96-1.71-3.2-2.25c-1.24-0.55-2.63-0.82-4.17-0.82c-1.54,0-2.93,0.27-4.17,0.82c-1.24,0.55-2.31,1.3-3.2,2.25
			c-0.89,0.96-1.58,2.07-2.04,3.35c-0.47,1.28-0.7,2.67-0.7,4.17c0,1.5,0.23,2.89,0.7,4.17c0.47,1.28,1.15,2.4,2.04,3.35
			c0.89,0.96,1.96,1.71,3.2,2.25c1.24,0.55,2.63,0.82,4.17,0.82c1.54,0,2.93-0.27,4.17-0.82c1.24-0.55,2.3-1.3,3.2-2.25
			c0.89-0.95,1.57-2.07,2.04-3.35S364.45,78.79,364.45,77.28z"/>
	</g>
	<g>
		<path d="M376.32,77.28c0-2.23,0.39-4.26,1.16-6.09c0.77-1.83,1.83-3.4,3.17-4.72c1.34-1.32,2.94-2.34,4.81-3.08
			c1.87-0.73,3.9-1.1,6.09-1.1s4.22,0.37,6.09,1.1c1.87,0.73,3.47,1.76,4.81,3.08c1.34,1.32,2.4,2.89,3.17,4.72
			c0.77,1.83,1.16,3.86,1.16,6.09c0,2.23-0.39,4.26-1.16,6.09c-0.77,1.83-1.83,3.4-3.17,4.72c-1.34,1.32-2.95,2.34-4.81,3.08
			s-3.9,1.1-6.09,1.1s-4.22-0.37-6.09-1.1c-1.87-0.73-3.47-1.76-4.81-3.08c-1.34-1.32-2.4-2.89-3.17-4.72
			C376.71,81.55,376.32,79.52,376.32,77.28z M381.44,77.28c0,1.5,0.23,2.89,0.7,4.17c0.47,1.28,1.15,2.4,2.04,3.35
			c0.89,0.96,1.96,1.71,3.2,2.25c1.24,0.55,2.63,0.82,4.17,0.82c1.54,0,2.93-0.27,4.17-0.82c1.24-0.55,2.3-1.3,3.2-2.25
			c0.89-0.95,1.57-2.07,2.04-3.35s0.7-2.67,0.7-4.17c0-1.5-0.23-2.89-0.7-4.17s-1.15-2.4-2.04-3.35c-0.89-0.95-1.96-1.71-3.2-2.25
			c-1.24-0.55-2.63-0.82-4.17-0.82c-1.54,0-2.93,0.27-4.17,0.82c-1.24,0.55-2.31,1.3-3.2,2.25c-0.89,0.96-1.58,2.07-2.04,3.35
			C381.68,74.39,381.44,75.78,381.44,77.28z"/>
	</g>
	<g>
		<path d="M412.51,77.28c0-2.23,0.39-4.26,1.16-6.09c0.77-1.83,1.83-3.4,3.17-4.72c1.34-1.32,2.94-2.34,4.81-3.08
			c1.87-0.73,3.9-1.1,6.09-1.1s4.22,0.37,6.09,1.1c1.87,0.73,3.47,1.76,4.81,3.08c1.34,1.32,2.4,2.89,3.17,4.72
			c0.77,1.83,1.16,3.86,1.16,6.09c0,2.23-0.39,4.26-1.16,6.09c-0.77,1.83-1.83,3.4-3.17,4.72c-1.34,1.32-2.95,2.34-4.81,3.08
			s-3.9,1.1-6.09,1.1s-4.22-0.37-6.09-1.1c-1.87-0.73-3.47-1.76-4.81-3.08c-1.34-1.32-2.4-2.89-3.17-4.72
			C412.9,81.55,412.51,79.52,412.51,77.28z M417.63,77.28c0,1.5,0.23,2.89,0.7,4.17c0.47,1.28,1.15,2.4,2.04,3.35
			c0.89,0.96,1.96,1.71,3.2,2.25c1.24,0.55,2.63,0.82,4.17,0.82c1.54,0,2.93-0.27,4.17-0.82c1.24-0.55,2.3-1.3,3.2-2.25
			c0.89-0.95,1.57-2.07,2.04-3.35s0.7-2.67,0.7-4.17c0-1.5-0.23-2.89-0.7-4.17s-1.15-2.4-2.04-3.35c-0.89-0.95-1.96-1.71-3.2-2.25
			c-1.24-0.55-2.63-0.82-4.17-0.82c-1.54,0-2.93,0.27-4.17,0.82c-1.24,0.55-2.31,1.3-3.2,2.25c-0.89,0.96-1.58,2.07-2.04,3.35
			C417.86,74.39,417.63,75.78,417.63,77.28z"/>
	</g>
</g>
</svg>
