<?xml version="1.0" encoding="utf-8"?>
<!-- Generator: Adobe Illustrator 26.2.1, SVG Export Plug-In . SVG Version: 6.00 Build 0)  -->
<svg version="1.1" id="Capa_1" xmlns="http://www.w3.org/2000/svg" xmlns:xlink="http://www.w3.org/1999/xlink" x="0px" y="0px"
	 viewBox="0 0 376.7 263.5" style="enable-background:new 0 0 376.7 263.5;" xml:space="preserve">
<style type="text/css">
	.st0{fill:#FFFFFF;}
</style>
<g>
	<g>
		<g>
			<path class="st0" d="M50.4,188.1c0-1.3,0-2.5-0.1-3.7c-0.1-1.1-0.1-2.2-0.1-3.1h4.5c0,0.8,0,1.5,0.1,2.3s0.1,1.6,0.1,2.4H55
				c0.3-0.7,0.8-1.4,1.4-2s1.3-1.2,2.1-1.7c0.8-0.5,1.7-0.9,2.7-1.2c1-0.3,2.1-0.5,3.3-0.5c1.5,0,2.8,0.2,3.9,0.6s1.9,0.9,2.6,1.4
				c0.7,0.6,1.2,1.1,1.6,1.8s0.7,1.2,0.9,1.7c1.1-1.7,2.3-3,3.7-4c1.4-0.9,3.2-1.4,5.4-1.4c2,0,3.7,0.3,5.1,0.8
				c1.4,0.6,2.5,1.3,3.3,2.4c0.8,1,1.5,2.3,1.8,3.8c0.4,1.5,0.6,3.1,0.6,5v17.3h-4.8v-17.1c0-1-0.1-1.9-0.3-2.9
				c-0.2-0.9-0.6-1.8-1.1-2.5s-1.2-1.3-2.1-1.8s-2-0.7-3.4-0.7c-1,0-2,0.2-2.9,0.6s-1.7,1-2.3,1.7c-0.7,0.7-1.2,1.6-1.6,2.6
				c-0.4,1-0.6,2.2-0.6,3.4v16.4h-4.8v-16.1c0-3.2-0.4-5.4-1.3-6.7c-0.8-1.3-2.2-2-4.2-2c-1.5,0-2.9,0.3-4,0.8
				c-1.1,0.5-2,1.3-2.7,2.2c-0.7,1-1.2,2.1-1.6,3.5c-0.3,1.3-0.5,2.8-0.5,4.4v13.9h-4.8L50.4,188.1L50.4,188.1z"/>
		</g>
		<g>
			<path class="st0" d="M127.8,204.7c-1.7,2.2-3.6,3.7-5.6,4.6c-2,0.9-4.4,1.3-7.1,1.3c-2.2,0-4.2-0.4-6-1.2
				c-1.8-0.8-3.3-1.9-4.5-3.2s-2.2-2.9-2.9-4.8s-1-3.8-1-5.9c0-2.2,0.4-4.2,1.1-6.1c0.7-1.9,1.8-3.4,3.1-4.8s2.8-2.3,4.6-3.1
				s3.7-1.1,5.8-1.1c2,0,3.8,0.3,5.5,1s3.1,1.6,4.3,2.9c1.2,1.3,2.1,2.8,2.8,4.7s1,3.9,1,6.3v1.5h-23c0.1,1.2,0.4,2.4,0.9,3.5
				c0.5,1.1,1.2,2.1,2,2.9c0.8,0.8,1.8,1.5,2.9,2s2.3,0.7,3.6,0.7c2.1,0,3.8-0.4,5.2-1.1c1.4-0.7,2.7-1.8,3.8-3.2L127.8,204.7z
				 M123.7,193.1c-0.1-2.4-0.9-4.4-2.4-5.9c-1.5-1.5-3.6-2.2-6.2-2.2s-4.8,0.7-6.4,2.2c-1.6,1.5-2.6,3.4-2.9,5.9H123.7z"/>
		</g>
		<g>
			<path class="st0" d="M136.2,188.1c0-1.3,0-2.5-0.1-3.7s-0.1-2.2-0.1-3.1h4.5c0,0.8,0,1.5,0.1,2.3s0.1,1.6,0.1,2.4h0.1
				c0.3-0.7,0.8-1.4,1.4-2s1.3-1.2,2.1-1.7c0.8-0.5,1.7-0.9,2.7-1.2c1-0.3,2.1-0.5,3.3-0.5c1.5,0,2.8,0.2,3.9,0.6s1.9,0.9,2.6,1.4
				c0.7,0.6,1.2,1.1,1.6,1.8s0.7,1.2,0.9,1.7c1.1-1.7,2.3-3,3.7-4c1.4-0.9,3.2-1.4,5.4-1.4c2,0,3.7,0.3,5.1,0.8
				c1.4,0.6,2.5,1.3,3.4,2.4c0.9,1,1.5,2.3,1.8,3.8c0.4,1.5,0.6,3.1,0.6,5v17.3h-4.8v-17.1c0-1-0.1-1.9-0.3-2.9
				c-0.2-0.9-0.6-1.8-1.1-2.5s-1.2-1.3-2.1-1.8s-2-0.7-3.4-0.7c-1,0-2,0.2-2.9,0.6s-1.7,1-2.4,1.7c-0.7,0.7-1.2,1.6-1.6,2.6
				c-0.4,1-0.6,2.2-0.6,3.4v16.4h-4.8v-16.1c0-3.2-0.4-5.4-1.3-6.7c-0.9-1.3-2.2-2-4.2-2c-1.5,0-2.9,0.3-4,0.8
				c-1.1,0.5-2,1.3-2.7,2.2s-1.2,2.1-1.6,3.5c-0.4,1.3-0.5,2.8-0.5,4.4v13.9h-4.8L136.2,188.1L136.2,188.1z"/>
		</g>
		<g>
			<path class="st0" d="M186.5,195.6c0-2.2,0.4-4.3,1.2-6.1s1.8-3.4,3.2-4.7s2.9-2.3,4.8-3.1c1.9-0.7,3.9-1.1,6.1-1.1
				s4.2,0.4,6.1,1.1s3.5,1.8,4.8,3.1s2.4,2.9,3.2,4.7s1.2,3.9,1.2,6.1s-0.4,4.3-1.2,6.1s-1.8,3.4-3.2,4.7s-2.9,2.3-4.8,3.1
				s-3.9,1.1-6.1,1.1s-4.2-0.4-6.1-1.1c-1.9-0.7-3.5-1.8-4.8-3.1s-2.4-2.9-3.2-4.7C186.9,199.9,186.5,197.9,186.5,195.6z
				 M191.6,195.6c0,1.5,0.2,2.9,0.7,4.2s1.1,2.4,2,3.4c0.9,1,2,1.7,3.2,2.2c1.2,0.6,2.6,0.8,4.2,0.8s2.9-0.3,4.2-0.8
				s2.3-1.3,3.2-2.2c0.9-0.9,1.6-2.1,2-3.4s0.7-2.7,0.7-4.2s-0.2-2.9-0.7-4.2s-1.1-2.4-2-3.4c-0.9-0.9-2-1.7-3.2-2.2
				c-1.2-0.6-2.6-0.8-4.2-0.8s-2.9,0.3-4.2,0.8s-2.3,1.3-3.2,2.2c-0.9,1-1.6,2.1-2,3.4S191.6,194.1,191.6,195.6z"/>
		</g>
		<g>
			<path class="st0" d="M248,204.8h-0.1c-0.9,1.6-2.3,3-4.2,4.1c-1.9,1.1-4.2,1.7-6.7,1.7c-2,0-3.9-0.4-5.6-1.1
				c-1.8-0.8-3.3-1.8-4.5-3.1s-2.3-2.9-3-4.8c-0.7-1.8-1.1-3.8-1.1-6s0.4-4.1,1.1-6c0.7-1.8,1.8-3.4,3.1-4.8s2.9-2.4,4.7-3.1
				s3.9-1.1,6.1-1.1c2.1,0,4,0.4,5.7,1.3s3.2,2.1,4.5,3.6h0.1v-21.7h4.8v46.1H248L248,204.8L248,204.8z M248,195.6
				c0-1.5-0.2-2.9-0.7-4.2s-1.1-2.4-2-3.4c-0.9-0.9-2-1.7-3.2-2.2c-1.2-0.6-2.6-0.8-4.2-0.8s-2.9,0.3-4.2,0.8s-2.3,1.3-3.2,2.2
				c-0.9,1-1.6,2.1-2,3.4c-0.5,1.3-0.7,2.7-0.7,4.2s0.2,2.9,0.7,4.2s1.1,2.4,2,3.4c0.9,1,2,1.7,3.2,2.2c1.2,0.6,2.6,0.8,4.2,0.8
				s2.9-0.3,4.2-0.8s2.3-1.3,3.2-2.2c0.9-0.9,1.6-2.1,2-3.4S248,197.1,248,195.6z"/>
		</g>
		<g>
			<path class="st0" d="M259.9,195.6c0-2.2,0.4-4.3,1.2-6.1s1.8-3.4,3.2-4.7c1.3-1.3,2.9-2.3,4.8-3.1c1.9-0.7,3.9-1.1,6.1-1.1
				s4.2,0.4,6.1,1.1s3.5,1.8,4.8,3.1s2.4,2.9,3.2,4.7c0.8,1.8,1.2,3.9,1.2,6.1s-0.4,4.3-1.2,6.1s-1.8,3.4-3.2,4.7
				c-1.3,1.3-3,2.3-4.8,3.1s-3.9,1.1-6.1,1.1s-4.2-0.4-6.1-1.1c-1.9-0.7-3.5-1.8-4.8-3.1s-2.4-2.9-3.2-4.7
				C260.3,199.9,259.9,197.9,259.9,195.6z M265,195.6c0,1.5,0.2,2.9,0.7,4.2s1.1,2.4,2,3.4c0.9,1,2,1.7,3.2,2.2
				c1.2,0.6,2.6,0.8,4.2,0.8s2.9-0.3,4.2-0.8c1.2-0.6,2.3-1.3,3.2-2.2c0.9-0.9,1.6-2.1,2-3.4s0.7-2.7,0.7-4.2s-0.2-2.9-0.7-4.2
				s-1.1-2.4-2-3.4c-0.9-0.9-2-1.7-3.2-2.2c-1.2-0.6-2.6-0.8-4.2-0.8s-2.9,0.3-4.2,0.8c-1.2,0.6-2.3,1.3-3.2,2.2
				c-0.9,1-1.6,2.1-2,3.4C265.2,192.7,265,194.1,265,195.6z"/>
		</g>
		<g>
			<path class="st0" d="M296.1,195.6c0-2.2,0.4-4.3,1.2-6.1s1.8-3.4,3.2-4.7c1.3-1.3,2.9-2.3,4.8-3.1c1.9-0.7,3.9-1.1,6.1-1.1
				s4.2,0.4,6.1,1.1s3.5,1.8,4.8,3.1s2.4,2.9,3.2,4.7c0.8,1.8,1.2,3.9,1.2,6.1s-0.4,4.3-1.2,6.1s-1.8,3.4-3.2,4.7
				c-1.3,1.3-3,2.3-4.8,3.1s-3.9,1.1-6.1,1.1s-4.2-0.4-6.1-1.1c-1.9-0.7-3.5-1.8-4.8-3.1s-2.4-2.9-3.2-4.7
				C296.5,199.9,296.1,197.9,296.1,195.6z M301.2,195.6c0,1.5,0.2,2.9,0.7,4.2s1.1,2.4,2,3.4c0.9,1,2,1.7,3.2,2.2
				c1.2,0.6,2.6,0.8,4.2,0.8s2.9-0.3,4.2-0.8c1.2-0.6,2.3-1.3,3.2-2.2c0.9-0.9,1.6-2.1,2-3.4s0.7-2.7,0.7-4.2s-0.2-2.9-0.7-4.2
				s-1.1-2.4-2-3.4c-0.9-0.9-2-1.7-3.2-2.2c-1.2-0.6-2.6-0.8-4.2-0.8s-2.9,0.3-4.2,0.8c-1.2,0.6-2.3,1.3-3.2,2.2
				c-0.9,1-1.6,2.1-2,3.4C301.4,192.7,301.2,194.1,301.2,195.6z"/>
		</g>
	</g>
	<g>
		<g>
			<path d="M205.2,148.2H160c-6,0-10.8-4.9-10.8-10.8V92.2c0-6,4.9-10.8,10.8-10.8h45.2c6,0,10.8,4.8,10.8,10.8v45.2
				C216,143.4,211.2,148.2,205.2,148.2z"/>
		</g>
		<g>
			<path class="st0" d="M216.8,137.1h-45.2c-6,0-10.8-4.9-10.8-10.8V81c0-6,4.9-10.8,10.8-10.8h45.2c6,0,10.8,4.8,10.8,10.8v45.2
				C227.6,132.2,222.7,137.1,216.8,137.1z"/>
		</g>
		<g>
			<path d="M194.1,86.4c-0.5,0-1-0.2-1.4-0.6c-0.8-0.8-0.8-2.1,0-2.8l22.1-22.1c0.8-0.8,2.1-0.8,2.8,0s0.8,2,0,2.8l-22.1,22.2
				C195.2,86.2,194.6,86.4,194.1,86.4z"/>
		</g>
		<g>
			<circle class="st0" cx="219" cy="59.5" r="6.6"/>
		</g>
	</g>
</g>
</svg>
