<svg width="64" height="61" viewBox="0 0 64 61" fill="none" xmlns="http://www.w3.org/2000/svg">
<path d="M30.2752 36.3153C29.2757 37.2679 29.2377 38.8504 30.1903 39.8498C31.143 40.8493 32.7254 40.8873 33.7249 39.9347L30.2752 36.3153ZM40 30.5L41.7249 32.3097C42.2199 31.8379 42.5 31.1839 42.5 30.5C42.5 29.8161 42.2199 29.1621 41.7249 28.6903L40 30.5ZM33.7249 21.0653C32.7254 20.1127 31.143 20.1507 30.1903 21.1502C29.2377 22.1496 29.2757 23.7321 30.2752 24.6847L33.7249 21.0653ZM10.6667 28C9.28597 28 8.16669 29.1193 8.16669 30.5C8.16669 31.8807 9.28598 33 10.6667 33L10.6667 28ZM33.7249 39.9347L41.7249 32.3097L38.2752 28.6903L30.2752 36.3153L33.7249 39.9347ZM41.7249 28.6903L33.7249 21.0653L30.2752 24.6847L38.2752 32.3097L41.7249 28.6903ZM10.6667 33L40 33V28L10.6667 28L10.6667 33Z" fill="white"/>
<path d="M24 17.7916V12.7083C24 11.3046 25.1939 10.1666 26.6667 10.1666H50.6667C52.1394 10.1666 53.3333 11.3046 53.3333 12.7083V48.2916C53.3333 49.6953 52.1394 50.8333 50.6667 50.8333H26.6667C25.1939 50.8333 24 49.6953 24 48.2916V43.2083" stroke="white" stroke-width="5" stroke-linecap="round" stroke-linejoin="round"/>
</svg>
