<svg width="582" height="608" viewBox="0 0 582 608" fill="none" xmlns="http://www.w3.org/2000/svg">
<path d="M303.513 411.181C314.641 411.181 323.662 402.16 323.662 391.033C323.662 379.905 314.641 370.884 303.513 370.884C292.385 370.884 283.364 379.905 283.364 391.033C283.364 402.16 292.385 411.181 303.513 411.181Z" fill="#EBEBEB"/>
<path d="M310.848 379.078C310.895 380.046 310.633 381.004 310.1 381.813C309.558 382.645 308.8 383.314 307.908 383.749C306.99 384.212 305.929 384.3 304.947 383.995C304.014 383.706 303.214 383.092 302.694 382.264C303.414 382.781 304.239 383.131 305.111 383.289C305.521 383.365 305.941 383.365 306.351 383.289C306.759 383.229 307.153 383.101 307.518 382.91C307.713 382.817 307.897 382.715 308.082 382.612C308.266 382.51 308.451 382.377 308.614 382.244C308.954 381.983 309.267 381.687 309.547 381.363C310.121 380.691 310.563 379.915 310.848 379.078Z" fill="#C7C7C7"/>
<path d="M303.595 380.236C303.509 379.565 303.657 378.884 304.015 378.31C304.381 377.716 304.906 377.237 305.531 376.927C306.187 376.602 306.945 376.547 307.641 376.774C308.289 376.997 308.828 377.458 309.147 378.064C308.637 377.749 308.069 377.537 307.477 377.44C306.943 377.381 306.402 377.477 305.92 377.716C304.862 378.242 304.035 379.139 303.595 380.236Z" fill="#C7C7C7"/>
<path d="M303.513 400.497C303.761 401.112 303.779 401.796 303.564 402.423C303.345 403.07 302.939 403.637 302.397 404.052C302.118 404.27 301.799 404.429 301.457 404.52C301.116 404.612 300.76 404.634 300.41 404.585C299.751 404.498 299.149 404.169 298.719 403.663C299.274 403.846 299.857 403.926 300.44 403.898C300.958 403.862 301.454 403.673 301.864 403.355C302.282 403.024 302.63 402.613 302.888 402.147C303.193 401.638 303.405 401.08 303.513 400.497Z" fill="#C7C7C7"/>
<path d="M299.334 402.792C299.223 402.587 299.155 402.361 299.132 402.129C299.109 401.897 299.132 401.663 299.201 401.44C299.336 400.97 299.62 400.556 300.01 400.262C300.212 400.103 300.445 399.989 300.693 399.925C300.942 399.862 301.201 399.851 301.454 399.893C301.684 399.935 301.904 400.023 302.099 400.151C302.294 400.28 302.462 400.446 302.591 400.641C302.203 400.564 301.806 400.547 301.413 400.59C301.095 400.631 300.794 400.758 300.543 400.958C299.952 401.423 299.528 402.066 299.334 402.792Z" fill="#C7C7C7"/>
<path d="M296.251 382.377C296.428 382.542 296.571 382.742 296.669 382.964C296.768 383.185 296.82 383.425 296.824 383.668C296.828 383.931 296.779 384.193 296.681 384.437C296.582 384.681 296.436 384.904 296.251 385.091C296.061 385.284 295.829 385.43 295.573 385.518C295.317 385.605 295.044 385.631 294.776 385.593C294.294 385.548 293.844 385.334 293.505 384.989C293.927 385.001 294.349 384.973 294.765 384.907C295.09 384.855 295.39 384.705 295.626 384.477C295.868 384.231 296.044 383.928 296.138 383.596C296.242 383.198 296.28 382.787 296.251 382.377Z" fill="#C7C7C7"/>
<path d="M293.751 384.333C293.605 384.233 293.483 384.101 293.396 383.946C293.309 383.792 293.259 383.619 293.249 383.442C293.242 383.253 293.273 383.065 293.342 382.888C293.411 382.712 293.515 382.552 293.649 382.418C293.789 382.275 293.963 382.168 294.154 382.108C294.345 382.047 294.548 382.034 294.745 382.07C294.918 382.093 295.084 382.152 295.234 382.242C295.383 382.331 295.513 382.451 295.616 382.592C295.329 382.626 295.044 382.681 294.765 382.756C294.578 382.803 294.407 382.903 294.274 383.043C294.126 383.187 294.01 383.362 293.936 383.555C293.839 383.805 293.777 384.067 293.751 384.333Z" fill="#C7C7C7"/>
<path d="M310.253 403.611C310.137 403.825 309.977 404.013 309.785 404.162C309.593 404.312 309.373 404.421 309.137 404.482C308.884 404.559 308.618 404.583 308.356 404.553C308.093 404.523 307.84 404.44 307.611 404.308C307.377 404.172 307.178 403.983 307.029 403.758C306.879 403.532 306.784 403.275 306.75 403.007C306.687 402.527 306.788 402.039 307.037 401.624C307.122 402.037 307.252 402.439 307.426 402.823C307.548 403.128 307.768 403.384 308.051 403.55C308.345 403.729 308.68 403.828 309.024 403.837C309.444 403.833 309.86 403.756 310.253 403.611Z" fill="#C7C7C7"/>
<path d="M307.744 401.675C307.804 401.509 307.902 401.358 308.029 401.235C308.157 401.113 308.312 401.021 308.481 400.969C308.667 400.908 308.864 400.887 309.058 400.908C309.252 400.93 309.44 400.992 309.608 401.092C309.787 401.198 309.937 401.347 310.044 401.526C310.152 401.705 310.213 401.908 310.223 402.116C310.24 402.29 310.223 402.465 310.172 402.632C310.121 402.8 310.037 402.955 309.926 403.089C309.816 402.82 309.693 402.557 309.557 402.3C309.462 402.131 309.324 401.989 309.157 401.891C308.979 401.79 308.785 401.721 308.584 401.686C308.306 401.643 308.023 401.64 307.744 401.675Z" fill="#C7C7C7"/>
<path d="M317.157 389.435C317.198 389.924 317.043 390.41 316.727 390.787C316.376 391.185 315.884 391.431 315.355 391.473C315.084 391.488 314.813 391.441 314.563 391.337C314.313 391.232 314.09 391.072 313.91 390.869C313.587 390.509 313.395 390.05 313.367 389.568C313.681 389.858 314.025 390.116 314.392 390.336C314.668 390.517 314.994 390.606 315.324 390.592C315.666 390.569 315.997 390.459 316.287 390.274C316.62 390.043 316.914 389.759 317.157 389.435Z" fill="#C7C7C7"/>
<path d="M313.992 389.24C313.943 389.065 313.936 388.88 313.974 388.701C314.011 388.523 314.091 388.356 314.207 388.216C314.329 388.059 314.484 387.93 314.661 387.84C314.838 387.75 315.033 387.7 315.232 387.693C315.428 387.685 315.622 387.724 315.801 387.806C315.979 387.888 316.135 388.011 316.256 388.164C316.368 388.297 316.452 388.45 316.503 388.615C316.554 388.781 316.571 388.955 316.553 389.127C316.317 388.96 316.066 388.813 315.805 388.687C315.635 388.598 315.443 388.559 315.252 388.574C315.046 388.584 314.843 388.636 314.658 388.728C314.415 388.87 314.192 389.042 313.992 389.24Z" fill="#C7C7C7"/>
<path d="M290.463 394.003C290.485 394.244 290.458 394.487 290.385 394.718C290.311 394.948 290.191 395.162 290.033 395.345C289.862 395.546 289.653 395.71 289.417 395.828C289.181 395.946 288.924 396.015 288.66 396.031C288.389 396.049 288.118 396.003 287.867 395.898C287.617 395.793 287.394 395.632 287.216 395.427C286.895 395.07 286.704 394.615 286.673 394.136C286.989 394.424 287.332 394.682 287.697 394.904C287.974 395.083 288.301 395.169 288.63 395.15C288.971 395.13 289.302 395.024 289.592 394.843C289.926 394.611 290.22 394.328 290.463 394.003Z" fill="#C7C7C7"/>
<path d="M287.298 393.798C287.25 393.623 287.244 393.438 287.282 393.26C287.319 393.082 287.398 392.915 287.513 392.774C287.637 392.619 287.792 392.492 287.969 392.402C288.145 392.312 288.339 392.261 288.537 392.252C288.732 392.243 288.926 392.28 289.104 392.36C289.282 392.44 289.439 392.561 289.562 392.712C289.673 392.845 289.756 392.999 289.807 393.164C289.858 393.329 289.876 393.503 289.859 393.675C289.62 393.515 289.37 393.371 289.111 393.245C288.942 393.153 288.75 393.11 288.558 393.122C288.355 393.136 288.157 393.188 287.974 393.276C287.725 393.418 287.498 393.593 287.298 393.798Z" fill="#C7C7C7"/>
<g opacity="0.4">
<path opacity="0.4" d="M303.59 430.828C307.828 422.742 310.979 414.131 312.962 405.22C315.103 396.339 316.466 387.273 317.797 378.106C318.504 373.527 319.139 368.887 319.979 364.246C320.764 359.474 321.824 354.75 323.155 350.1C324.566 345.088 326.596 340.27 329.198 335.759C332.208 330.616 336.34 326.218 341.285 322.894C342.607 322.023 344.031 321.296 345.383 320.517C346.735 319.739 348.312 319.247 349.808 318.663C351.303 318.079 352.881 317.741 354.376 317.352C355.872 316.963 357.449 316.789 358.976 316.533C364.859 315.751 370.826 315.83 376.687 316.768C382.435 317.684 388.049 319.301 393.404 321.583C398.419 323.751 403.247 326.331 407.837 329.296C416.171 334.816 424.092 340.933 431.54 347.601L442.029 356.82C443.74 358.326 445.471 359.76 447.151 361.204L449.701 363.345L452.252 365.394C455.567 368.048 459.013 370.533 462.577 372.84C465.947 375.043 469.497 376.955 473.19 378.556C477.115 380.159 481.173 381.413 485.318 382.305C489.64 383.33 494.148 384.088 498.767 384.764C507.986 386.126 517.615 386.987 527.357 388.113L534.681 389.025C537.149 389.384 539.598 389.752 542.076 390.203C547.107 391.045 552.066 392.271 556.909 393.87C561.976 395.508 566.748 397.946 571.045 401.092C575.388 404.35 578.933 408.553 581.411 413.384C582.595 415.717 583.549 418.159 584.259 420.677L585.181 424.396C585.437 425.625 585.601 426.813 585.816 428.032C586.538 432.903 586.816 437.83 586.645 442.752C586.398 447.707 585.671 452.626 584.474 457.441C584.146 458.639 583.9 459.868 583.511 461.046L582.364 464.601C581.483 466.926 580.592 469.262 579.536 471.515C575.309 480.6 569.755 489.006 563.055 496.458C559.757 500.219 556.241 503.783 552.525 507.131C548.858 510.542 544.945 513.646 540.97 516.668C538.921 518.123 536.955 519.649 534.875 521.021L531.802 523.132L528.658 525.18C524.43 527.83 520.115 530.322 515.71 532.658C513.508 533.815 511.285 534.932 509.062 536.059C506.839 537.186 504.565 538.189 502.301 539.203C500.037 540.218 497.763 541.252 495.459 542.164C493.154 543.075 490.87 544.049 488.534 544.899L475.218 549.877C473.046 550.686 470.916 551.557 468.775 552.397L465.558 553.667L462.373 554.989C445.468 561.973 429.007 569.984 413.081 578.979C405.081 583.496 397.153 588.198 388.548 592.951C384.256 595.358 379.708 597.693 374.73 599.916C369.455 602.293 363.968 604.166 358.341 605.509C352.3 606.918 346.103 607.541 339.902 607.363C334.005 607.182 328.144 606.375 322.417 604.956C319.631 604.351 317.039 603.542 314.407 602.774C313.106 602.364 311.856 601.914 310.586 601.494C309.316 601.074 308.066 600.643 306.755 600.1L302.883 598.543L300.957 597.744L299.042 596.812C296.451 595.611 293.93 594.263 291.492 592.776C290.263 592.018 289.034 591.281 287.815 590.492L284.271 587.88L282.529 586.559C281.945 586.108 281.413 585.586 280.849 585.094L277.571 582.103C276.547 581.078 275.523 579.89 274.56 578.794L273.085 577.114C272.614 576.541 272.194 575.926 271.743 575.322C270.872 574.113 269.991 572.914 269.151 571.696C268.311 570.477 267.666 569.135 266.949 567.844C264.251 562.787 262.334 557.351 261.264 551.721L260.844 549.672C260.731 548.986 260.66 548.31 260.578 547.624C260.414 546.271 260.24 544.919 260.127 543.526C259.977 540.883 259.96 538.233 260.076 535.588C260.307 530.494 260.972 525.429 262.063 520.448C263.134 515.657 264.474 510.931 266.078 506.291C269.241 497.304 272.959 488.522 277.213 479.997C278.237 477.897 279.262 475.766 280.368 473.697C281.474 471.628 282.417 469.518 283.574 467.459C284.732 465.4 285.766 463.361 286.872 461.313L290.181 455.167L303.59 430.828ZM306.314 432.221C301.93 440.334 297.853 448.611 294.227 457.062L292.875 460.227L291.605 463.423C290.734 465.543 289.966 467.705 289.187 469.856C287.6 474.148 286.227 478.511 284.957 482.885C282.426 491.522 280.684 500.371 279.753 509.323C279.301 513.655 279.106 518.009 279.169 522.363C279.261 526.529 279.689 530.681 280.45 534.778C280.726 536.827 281.351 538.681 281.802 540.586L282.734 543.321C282.898 543.772 283.031 544.223 283.195 544.663L283.779 545.954C285.167 549.267 287.012 552.37 289.259 555.173C289.823 555.849 290.386 556.505 290.908 557.222L292.752 559.065C293.059 559.373 293.346 559.7 293.664 559.987L294.688 560.817C295.374 561.36 296.01 561.944 296.737 562.476L298.939 563.992C299.308 564.249 299.646 564.525 300.035 564.75L301.234 565.437L303.6 566.82L306.151 568.039C309.685 569.714 313.338 571.128 317.08 572.269C318.002 572.597 319.037 572.874 320.061 573.15C321.085 573.427 322.11 573.734 323.134 573.98C325.132 574.42 327.139 574.953 329.065 575.25C332.695 575.961 336.388 576.304 340.087 576.274C343.467 576.223 346.83 575.773 350.105 574.932C356.732 573.242 364.128 569.637 372.149 565.345C376.154 563.224 380.241 560.971 384.441 558.686C388.641 556.402 392.933 554.179 397.245 551.946C414.748 543.021 432.859 535.343 451.443 528.97L454.864 527.762L458.357 526.614C460.682 525.856 463.008 525.068 465.343 524.351L479.018 520.181C483.371 518.84 487.684 517.416 491.976 515.951L498.358 513.646C500.468 512.837 502.578 512.038 504.678 511.208C508.826 509.487 513.016 507.797 517.052 505.871L520.125 504.458L523.126 502.973C525.175 502.01 527.07 500.924 529.047 499.9C536.801 495.696 544.129 490.749 550.927 485.129C554.245 482.336 557.363 479.313 560.258 476.084C563.141 472.92 565.716 469.49 567.951 465.84C572.475 458.598 575.34 450.444 576.341 441.963C576.786 437.695 576.765 433.391 576.279 429.128C576.125 428.104 576.023 426.977 575.839 425.932L575.204 422.859C574.673 420.905 573.96 419.005 573.073 417.184C571.306 413.582 568.674 410.474 565.411 408.139C561.927 405.723 558.043 403.944 553.938 402.884C549.575 401.741 545.118 400.987 540.622 400.631C536.053 400.252 531.403 400.119 526.691 400.16C517.287 400.211 507.7 400.795 497.815 401C492.857 401.071 487.817 401 482.634 400.692C477.256 400.391 471.913 399.63 466.665 398.418C455.489 395.683 445.86 390.674 437.143 385.102C419.832 373.896 406.198 360.518 392.349 350.674C385.455 345.767 378.633 341.854 371.606 339.703C368.073 338.62 364.418 337.987 360.727 337.818C357.374 337.521 353.998 338.015 350.87 339.26C347.742 340.506 344.951 342.468 342.719 344.989C339.936 348.004 337.55 351.364 335.621 354.986C333.527 358.861 331.656 362.852 330.018 366.94C328.368 371.15 326.801 375.463 325.377 379.826C322.448 388.554 319.877 397.476 316.937 406.295C314.15 415.224 310.603 423.898 306.335 432.221H306.314Z" fill="#EBEBEB"/>
<path opacity="0.4" d="M480.915 97.2479C479.628 100.006 478.153 102.672 476.5 105.227C475.742 106.457 474.943 107.614 474.144 108.782C473.345 109.95 472.505 111.046 471.665 112.121C470.006 114.313 468.264 116.331 466.543 118.349C459.517 126.288 451.865 133.1 444.367 139.86L441.713 142.268L440.546 143.292L439.409 144.49C438.64 145.259 437.964 146.14 437.247 146.98C436.53 147.82 435.895 148.782 435.199 149.725C434.502 150.667 433.908 151.63 433.314 152.654C432.72 153.679 432.115 154.703 431.552 155.727C430.456 157.776 429.339 159.999 428.366 162.232C424.269 171.185 421.196 180.803 416.474 190.442C414 195.571 410.726 200.274 406.773 204.373C404.611 206.542 402.205 208.453 399.603 210.069C398.278 210.88 396.91 211.618 395.506 212.281C394.799 212.609 394.092 212.957 393.375 213.244L391.203 214.053C388.316 215.052 385.348 215.799 382.333 216.286C380.816 216.563 379.178 216.645 377.569 216.788C375.961 216.932 374.394 216.788 372.786 216.788C371.177 216.788 369.713 216.512 368.084 216.338C367.316 216.246 366.554 216.116 365.8 215.948L363.526 215.487L362.389 215.242L361.293 214.924L359.1 214.268C357.651 213.853 356.228 213.35 354.839 212.763C349.404 210.591 344.266 207.741 339.546 204.281C334.997 200.908 330.8 197.085 327.018 192.87C323.332 188.692 320.078 184.152 317.307 179.318C316.621 178.109 315.966 176.89 315.32 175.682C314.675 174.473 314.132 173.172 313.548 171.922C312.964 170.673 312.432 169.402 311.94 168.112C311.448 166.821 310.916 165.561 310.506 164.229C308.741 159.037 307.398 153.71 306.49 148.301C305.569 142.988 305.076 137.61 305.015 132.219C304.914 126.952 305.312 121.687 306.204 116.495C307.085 111.368 308.714 106.398 311.038 101.745C313.495 97.0268 316.999 92.934 321.282 89.7805C325.645 86.656 330.414 84.1436 335.459 82.313C345.529 78.6699 355.947 76.0681 366.547 74.5485C371.782 73.7495 376.985 73.2169 382.138 72.8891C382.638 72.8667 383.135 72.8016 383.623 72.6945L384.822 72.4794C385.641 72.2335 386.42 72.1618 387.229 71.875L388.417 71.537C388.817 71.3936 389.216 71.2297 389.616 71.117C390.415 70.9019 391.255 70.4819 392.064 70.2258C395.76 68.7191 399.359 66.9847 402.84 65.0324L408.914 61.6214L412.161 59.7878L415.644 57.9542C417.959 56.684 420.551 55.4651 423.214 54.2564C426.106 52.993 429.076 51.9153 432.105 51.0297C435.522 50.0293 439.034 49.3907 442.584 49.1244C446.46 48.8278 450.357 49.0621 454.169 49.821L455.624 50.0975L457.038 50.4766C457.97 50.7429 458.922 50.999 459.855 51.296C461.643 51.9252 463.391 52.6641 465.089 53.5086L467.558 54.789L469.821 56.1924C471.285 57.1414 472.697 58.1672 474.052 59.2654C474.41 59.5317 474.687 59.7366 475.076 60.0746C475.465 60.4126 476.101 60.976 476.623 61.4472C477.688 62.4067 478.665 63.4591 479.542 64.5919C479.757 64.8685 479.993 65.1553 480.208 65.4524L480.833 66.405C481.233 67.0504 481.611 67.6855 481.991 68.341C482.669 69.6617 483.248 71.0314 483.722 72.4384C483.927 73.1349 484.111 73.8213 484.285 74.4871C484.377 74.8353 484.459 75.1939 484.521 75.5114L484.685 76.5357C484.777 77.1913 484.848 77.8571 484.92 78.523C484.992 79.1888 484.971 79.7624 484.992 80.3873C485.012 81.0121 484.992 81.6267 484.992 82.2208L484.848 83.9007C484.787 84.4436 484.746 85.0378 484.654 85.5499L484.357 87.1274C483.606 90.623 482.451 94.0193 480.915 97.2479Z" fill="#EBEBEB"/>
<path opacity="0.4" d="M154.861 412.861C155.366 415.79 155.575 418.762 155.486 421.732C155.261 427.149 154.332 432.514 152.72 437.691C151.327 442.74 149.55 447.674 147.404 452.452C145.223 457.252 142.472 461.771 139.209 465.912C135.8 470.219 131.831 474.053 127.409 477.313C122.451 480.786 116.752 483.055 110.763 483.94C107.589 484.415 104.367 484.48 101.175 484.135C98.0931 483.79 95.0812 482.979 92.2432 481.728C89.7257 480.596 87.3696 479.136 85.2368 477.384C83.3287 475.788 81.5191 474.078 79.818 472.263C78.9375 471.312 78.1455 470.284 77.4518 469.19C76.7988 468.042 76.2404 466.843 75.7821 465.604C74.9227 463.046 74.3256 460.407 73.9998 457.727C73.2362 452.157 73.1743 446.514 73.8154 440.928C74.4243 435.565 76.1704 430.393 78.9371 425.758C81.614 421.364 85.1461 417.554 89.3239 414.551C93.6358 411.626 98.2773 409.22 103.152 407.381C108.008 405.455 112.71 403.642 117.176 401.532C121.642 399.422 125.965 397.076 131.404 395.386C132.856 394.927 134.348 394.604 135.86 394.423C137.623 394.186 139.411 394.214 141.166 394.505C143.52 394.959 145.716 396.018 147.537 397.578C147.99 397.974 148.421 398.395 148.828 398.838C149.207 399.268 149.586 399.709 149.944 400.17C150.573 401.021 151.138 401.918 151.634 402.853C152.095 403.71 152.505 404.592 152.864 405.496C153.171 406.316 153.519 407.217 153.734 408.006L154.093 409.245L154.39 410.444C154.585 411.314 154.718 412.072 154.861 412.861Z" fill="#EBEBEB"/>
<path opacity="0.4" d="M16.073 235.917C16.04 243.692 17.5257 251.4 20.4469 258.606C23.4073 265.705 28.0885 271.994 34.1526 275.948C35.6315 276.928 37.1947 277.775 38.8236 278.478C40.4244 279.139 42.0845 279.647 43.7814 279.994C47.0884 280.676 50.4948 280.725 53.8199 280.137C60.4167 279 66.5012 275.733 71.8893 271.431C72.2171 271.154 72.5858 270.877 72.9136 270.621L73.6716 269.894C74.1633 269.382 74.696 268.87 75.1262 268.327C76.1095 267.207 77.0034 266.012 77.7997 264.752C79.5425 262.028 81.034 259.152 82.2556 256.158C84.9136 249.552 87.0942 242.763 88.7806 235.845C92.4375 221.504 95.3466 206.313 98.8089 190.887C99.6694 187.022 100.588 183.143 101.564 179.25C102.507 175.348 103.552 171.435 104.637 167.491C106.845 159.288 109.681 151.268 113.119 143.501C114.061 141.452 115.096 139.403 116.325 137.283C116.929 136.259 117.616 135.163 118.374 134.118C119.132 133.073 119.869 132.069 120.679 131.158C123.777 127.553 127.367 124.401 131.342 121.795C138.861 116.745 146.584 113.6 154 110.404C161.417 107.208 168.73 104.258 175.645 100.724C182.49 97.29 188.926 93.0944 194.83 88.2172C200.543 83.4301 205.415 77.7208 209.243 71.3259C213.013 64.9852 215.758 58.0709 216.547 51.341C216.977 48.1321 216.932 44.8773 216.413 41.6815C215.92 38.8241 214.876 36.0898 213.34 33.6302C211.965 31.4561 210.157 29.589 208.028 28.1455C205.899 26.702 203.495 25.7132 200.966 25.2408C198.385 24.7367 195.742 24.633 193.13 24.9335C190.325 25.2808 187.574 25.9688 184.935 26.9822C184.249 27.2383 183.573 27.5251 182.887 27.8119L180.469 28.8363C178.871 29.5533 177.284 30.3011 175.737 31.1C172.664 32.6878 169.591 34.3984 166.61 36.3139C160.638 40.0937 154.769 44.6725 148.233 49.6303C141.381 54.9033 134.15 59.6657 126.599 63.8789C118.728 68.0844 110.472 71.5249 101.943 74.153C100.919 74.5013 99.8333 74.7779 98.7782 75.0852L95.9408 75.8944C94.3735 76.3554 92.7858 76.8573 91.2083 77.4002C88.0636 78.5065 84.9496 79.7664 81.9175 81.1698C69.7996 86.8241 59.2079 94.7525 51.6688 105.057C47.7694 110.312 44.5448 116.035 42.0707 122.092C40.7397 125.26 39.6141 128.511 38.7007 131.823C37.7182 135.255 36.9181 138.735 36.3037 142.251C35.6891 145.826 35.2077 149.493 34.9106 153.222C34.757 154.973 34.6443 157.258 34.5009 159.368C34.3575 161.478 34.1424 163.578 33.8965 165.668C32.9173 173.93 31.3599 182.114 29.2358 190.159C27.1871 198.119 24.6467 205.822 22.0654 213.391C20.7645 217.182 19.4636 220.941 18.3061 224.659C17.0595 228.294 16.3084 232.081 16.073 235.917ZM13 235.917C13.0108 233.822 13.2235 231.733 13.6351 229.679C13.9936 227.63 14.4648 225.694 14.9257 223.748C15.8476 219.845 16.8413 215.993 17.6607 212.121C18.4802 208.249 19.2075 204.388 19.7094 200.505C20.2113 196.623 20.5391 192.731 20.7338 188.848C21.0112 181.153 20.517 173.449 19.2587 165.852C18.9719 163.967 18.6031 162.103 18.2344 160.249C17.8656 158.395 17.4251 156.674 16.9949 154.471C16.1195 150.228 15.48 145.94 15.0794 141.626C14.2101 132.66 14.6275 123.616 16.3188 114.768C18.1187 105.52 21.4861 96.648 26.2754 88.5348C31.1819 80.3973 37.3226 73.0713 44.4779 66.8188C51.4925 60.6763 59.3035 55.5081 67.6997 51.4537C71.8307 49.4288 76.087 47.6702 80.4425 46.1886C82.6141 45.4203 84.8267 44.7545 87.0802 44.1399L92.5502 42.6751C99.2664 40.8433 105.815 38.4445 112.125 35.5047C118.673 32.3801 124.995 28.8034 131.045 24.8004C137.549 20.703 144.587 15.9193 152.392 11.7708C156.308 9.66432 160.332 7.76664 164.449 6.08567C166.497 5.23547 168.546 4.46722 170.697 3.72969L173.852 2.70535C175.05 2.34683 176.259 1.99856 177.478 1.68101C182.476 0.411088 187.628 -0.144162 192.782 0.0318259C198.132 0.201513 203.411 1.30386 208.383 3.28923C213.457 5.33031 218.066 8.37547 221.935 12.242C225.755 16.0554 228.716 20.6409 230.621 25.6915C232.41 30.4677 233.289 35.5368 233.212 40.6366C233.159 45.3869 232.414 50.104 231 54.6394C228.259 63.0071 224.082 70.8338 218.657 77.769C216.081 81.1516 213.278 84.3549 210.267 87.3568C207.273 90.3046 204.109 93.0751 200.792 95.6539C187.588 105.897 172.592 112.699 159.04 120.617C152.279 124.53 145.836 128.812 140.95 133.749C138.66 136.053 136.715 138.675 135.173 141.534C134.825 142.217 134.507 142.9 134.22 143.583C133.944 144.249 133.688 144.925 133.432 145.631C132.93 147.106 132.469 148.704 132.049 150.405C131.219 153.775 130.574 157.411 130 161.119C129.426 164.828 128.914 168.628 128.392 172.459L126.876 184.075C126.364 187.978 125.851 191.911 125.237 195.865C122.819 211.64 119.746 227.732 113.969 243.753C111.06 252.08 107.174 260.033 102.394 267.446C101.093 269.351 99.7411 271.236 98.2353 273.08C96.7268 274.968 95.0909 276.751 93.3389 278.417C91.5335 280.159 89.595 281.759 87.5412 283.2C86.493 283.941 85.4056 284.625 84.2838 285.249L82.5629 286.171C82.0097 286.458 81.5386 286.663 80.9957 286.908C76.8371 288.839 72.4824 290.316 68.007 291.313C63.4537 292.32 58.779 292.665 54.1272 292.337C49.5016 292.008 44.9682 290.878 40.7289 288.998C38.6582 288.079 36.6764 286.971 34.8082 285.689C32.9897 284.446 31.2767 283.055 29.6865 281.531C23.671 275.537 19.2333 268.146 16.7696 260.019C14.3432 252.24 13.0731 244.147 13 235.999V235.917Z" fill="#EBEBEB"/>
</g>
<g opacity="0.4">
<path opacity="0.4" d="M444.206 240.905C468.289 222.201 492.514 225.837 492.514 225.837C492.514 225.837 492.627 250.339 470.644 271.472C452.094 289.305 434.485 288.291 428.411 281.285C422.337 274.278 423.883 256.68 444.206 240.905Z" fill="#EBEBEB"/>
<path opacity="0.4" d="M441.533 253.003C456.795 241.141 472.15 243.456 472.15 243.456C472.15 243.456 472.222 258.975 458.291 272.383C446.531 283.651 435.356 283.047 431.515 278.601C427.673 274.155 428.646 263 441.533 253.003Z" fill="white"/>
</g>
<path d="M452.585 259.405L450.762 257.95C450.637 257.851 450.534 257.729 450.456 257.59C450.379 257.451 450.33 257.298 450.312 257.14C450.294 256.982 450.307 256.822 450.351 256.67C450.395 256.517 450.468 256.374 450.567 256.25C450.667 256.126 450.79 256.023 450.929 255.947C451.068 255.87 451.221 255.822 451.379 255.805C451.537 255.788 451.697 255.802 451.849 255.847C452.002 255.892 452.144 255.966 452.268 256.065L454.091 257.52C454.215 257.619 454.317 257.741 454.394 257.879C454.47 258.018 454.518 258.17 454.535 258.327C454.552 258.484 454.538 258.643 454.493 258.794C454.449 258.946 454.375 259.087 454.275 259.21C454.178 259.334 454.056 259.438 453.918 259.515C453.78 259.592 453.628 259.641 453.471 259.659C453.314 259.678 453.155 259.664 453.003 259.621C452.851 259.577 452.709 259.504 452.585 259.405Z" fill="#EBEBEB"/>
<path d="M432.027 278.161L430.757 276.204C430.582 275.936 430.521 275.61 430.586 275.297C430.651 274.984 430.838 274.71 431.105 274.534C431.238 274.446 431.387 274.386 431.544 274.355C431.7 274.325 431.861 274.326 432.017 274.359C432.173 274.391 432.322 274.454 432.453 274.544C432.585 274.634 432.698 274.749 432.785 274.883L434.055 276.839C434.229 277.108 434.288 277.435 434.221 277.748C434.154 278.061 433.965 278.335 433.696 278.509C433.429 278.683 433.103 278.745 432.79 278.679C432.477 278.614 432.202 278.428 432.027 278.161Z" fill="#EBEBEB"/>
<path d="M444.032 255.686H442.772C442.613 255.681 442.457 255.645 442.313 255.579C442.168 255.513 442.038 255.42 441.929 255.304C441.821 255.188 441.736 255.051 441.681 254.903C441.625 254.754 441.599 254.596 441.604 254.437C441.61 254.278 441.646 254.122 441.712 253.977C441.778 253.833 441.871 253.702 441.987 253.594C442.103 253.485 442.24 253.401 442.388 253.345C442.537 253.289 442.695 253.264 442.854 253.269H444.104C444.262 253.273 444.418 253.308 444.563 253.373C444.707 253.437 444.837 253.53 444.946 253.645C445.055 253.761 445.139 253.896 445.195 254.044C445.251 254.192 445.277 254.35 445.272 254.508C445.268 254.667 445.232 254.824 445.168 254.969C445.103 255.114 445.011 255.245 444.896 255.354C444.781 255.464 444.645 255.549 444.497 255.606C444.349 255.663 444.191 255.691 444.032 255.686Z" fill="#EBEBEB"/>
<path d="M455.628 270.836V269.587C455.632 269.429 455.667 269.273 455.732 269.128C455.796 268.983 455.889 268.853 456.004 268.745C456.119 268.636 456.255 268.551 456.403 268.495C456.551 268.44 456.709 268.414 456.867 268.419C457.026 268.423 457.182 268.458 457.327 268.523C457.473 268.587 457.604 268.68 457.713 268.795C457.822 268.91 457.908 269.045 457.965 269.194C458.022 269.342 458.049 269.5 458.045 269.659V270.918C458.041 271.077 458.006 271.233 457.941 271.377C457.877 271.522 457.784 271.652 457.669 271.761C457.554 271.869 457.418 271.954 457.27 272.01C457.122 272.066 456.964 272.092 456.806 272.086C456.646 272.082 456.489 272.047 456.343 271.982C456.197 271.916 456.066 271.823 455.956 271.707C455.847 271.591 455.761 271.454 455.705 271.305C455.648 271.155 455.622 270.996 455.628 270.836Z" fill="#EBEBEB"/>
<path d="M428.923 271.205L428.78 269.966C428.744 269.653 428.831 269.339 429.022 269.089C429.213 268.839 429.493 268.672 429.804 268.624C430.124 268.589 430.445 268.683 430.697 268.885C430.948 269.086 431.11 269.379 431.146 269.7L431.279 270.939C431.317 271.251 431.231 271.565 431.039 271.814C430.848 272.063 430.566 272.227 430.255 272.271C430.097 272.289 429.938 272.276 429.785 272.232C429.633 272.189 429.49 272.115 429.366 272.016C429.242 271.917 429.139 271.794 429.063 271.655C428.987 271.516 428.94 271.363 428.923 271.205Z" fill="#EBEBEB"/>
<path d="M449.256 282.125L448.088 282.586C447.941 282.644 447.783 282.672 447.624 282.669C447.465 282.666 447.308 282.631 447.162 282.567C447.017 282.504 446.885 282.412 446.775 282.297C446.665 282.183 446.579 282.047 446.521 281.899C446.463 281.751 446.435 281.593 446.438 281.435C446.441 281.276 446.476 281.119 446.539 280.973C446.603 280.828 446.695 280.696 446.81 280.586C446.924 280.476 447.059 280.39 447.208 280.332L448.375 279.881C448.673 279.764 449.005 279.769 449.299 279.895C449.592 280.022 449.824 280.26 449.943 280.557C450.002 280.705 450.031 280.863 450.029 281.023C450.026 281.182 449.992 281.339 449.928 281.485C449.864 281.631 449.772 281.763 449.657 281.873C449.541 281.982 449.405 282.068 449.256 282.125Z" fill="#EBEBEB"/>
<path d="M445.058 282.24C452.71 281.386 458.221 274.49 457.366 266.838C456.512 259.186 449.616 253.675 441.964 254.529C434.312 255.384 428.802 262.279 429.656 269.931C430.51 277.583 437.406 283.094 445.058 282.24Z" fill="#EBEBEB"/>
<path d="M437.538 260.757C437.574 261.428 437.83 262.068 438.265 262.58C438.699 263.112 439.269 263.516 439.914 263.748C440.58 263.992 441.313 263.97 441.963 263.687C442.58 263.414 443.081 262.931 443.376 262.324C442.926 262.745 442.387 263.06 441.799 263.246C441.523 263.327 441.235 263.358 440.949 263.338C440.662 263.329 440.378 263.274 440.109 263.174L439.699 263.01C439.566 262.939 439.433 262.877 439.31 262.795C439.057 262.642 438.82 262.464 438.603 262.263C438.151 261.837 437.788 261.325 437.538 260.757Z" fill="#C7C7C7"/>
<path d="M442.608 261.003C442.616 260.531 442.46 260.072 442.168 259.702C441.873 259.321 441.474 259.033 441.021 258.872C440.566 258.699 440.062 258.708 439.615 258.9C439.168 259.091 438.812 259.448 438.624 259.897C438.951 259.639 439.327 259.451 439.73 259.343C440.09 259.256 440.468 259.277 440.816 259.405C441.593 259.693 442.233 260.264 442.608 261.003Z" fill="#C7C7C7"/>
<path d="M448.375 269.986C448.249 270.429 448.289 270.903 448.488 271.318C448.68 271.748 449.002 272.107 449.41 272.342C449.617 272.472 449.848 272.559 450.089 272.596C450.331 272.633 450.577 272.62 450.813 272.557C451.261 272.447 451.652 272.173 451.909 271.789C451.541 271.959 451.146 272.063 450.742 272.096C450.38 272.107 450.024 272.01 449.717 271.82C449.393 271.634 449.11 271.383 448.887 271.082C448.651 270.752 448.477 270.38 448.375 269.986Z" fill="#C7C7C7"/>
<path d="M451.418 271.236C451.481 271.089 451.514 270.93 451.514 270.77C451.514 270.61 451.481 270.451 451.418 270.304C451.291 269.99 451.064 269.728 450.772 269.556C450.621 269.463 450.451 269.402 450.275 269.377C450.099 269.353 449.919 269.365 449.748 269.413C449.592 269.459 449.447 269.536 449.322 269.64C449.197 269.744 449.095 269.872 449.021 270.017C449.282 269.932 449.555 269.887 449.83 269.884C450.051 269.895 450.266 269.962 450.455 270.079C450.893 270.349 451.231 270.756 451.418 271.236Z" fill="#C7C7C7"/>
<path d="M452.995 266.35C452.885 266.477 452.803 266.625 452.752 266.786C452.7 266.946 452.682 267.115 452.698 267.282C452.715 267.463 452.768 267.639 452.854 267.799C452.94 267.959 453.058 268.101 453.2 268.214C453.342 268.327 453.508 268.407 453.685 268.448C453.863 268.489 454.047 268.489 454.224 268.45C454.548 268.379 454.838 268.198 455.044 267.938C454.757 267.962 454.47 267.962 454.183 267.938C453.951 267.933 453.727 267.85 453.548 267.702C453.365 267.553 453.224 267.359 453.138 267.139C453.048 266.885 453 266.619 452.995 266.35Z" fill="#C7C7C7"/>
<path d="M454.859 267.497C454.955 267.42 455.03 267.321 455.078 267.209C455.126 267.096 455.146 266.974 455.136 266.852C455.131 266.716 455.096 266.584 455.034 266.464C454.972 266.343 454.885 266.238 454.777 266.155C454.671 266.067 454.544 266.005 454.409 265.977C454.273 265.948 454.132 265.953 453.999 265.991C453.882 266.021 453.773 266.075 453.678 266.149C453.583 266.223 453.504 266.316 453.446 266.422C453.645 266.425 453.843 266.442 454.04 266.473C454.171 266.493 454.294 266.546 454.398 266.626C454.511 266.717 454.605 266.828 454.675 266.954C454.76 267.126 454.822 267.309 454.859 267.497Z" fill="#C7C7C7"/>
<path d="M433.543 264.373C433.545 264.542 433.582 264.709 433.651 264.864C433.719 265.019 433.819 265.159 433.942 265.274C434.079 265.402 434.241 265.499 434.417 265.561C434.593 265.623 434.78 265.647 434.967 265.633C435.153 265.625 435.336 265.573 435.499 265.482C435.663 265.392 435.803 265.264 435.909 265.11C436.1 264.839 436.194 264.51 436.175 264.178C435.989 264.398 435.783 264.6 435.561 264.783C435.381 264.923 435.164 265.009 434.936 265.028C434.699 265.04 434.462 264.991 434.25 264.885C433.988 264.754 433.749 264.581 433.543 264.373Z" fill="#C7C7C7"/>
<path d="M435.704 263.973C435.721 263.852 435.709 263.729 435.67 263.614C435.631 263.498 435.565 263.394 435.479 263.308C435.385 263.211 435.271 263.136 435.146 263.086C435.021 263.037 434.886 263.014 434.752 263.021C434.622 263.028 434.496 263.063 434.382 263.124C434.268 263.185 434.168 263.27 434.09 263.374C434.012 263.477 433.958 263.596 433.93 263.723C433.903 263.849 433.904 263.98 433.932 264.107C434.116 263.963 434.26 263.84 434.403 263.748C434.52 263.681 434.649 263.639 434.782 263.625C434.926 263.619 435.069 263.644 435.202 263.697C435.382 263.765 435.551 263.858 435.704 263.973Z" fill="#C7C7C7"/>
<path d="M442.373 272.916C441.849 273.223 441.246 273.369 440.64 273.334C440.034 273.299 439.452 273.085 438.967 272.72C438.482 272.354 438.117 271.854 437.916 271.281C437.716 270.708 437.689 270.088 437.841 269.5C437.992 268.912 438.314 268.382 438.766 267.977C439.218 267.572 439.78 267.31 440.381 267.224C440.982 267.138 441.595 267.232 442.143 267.494C442.69 267.755 443.148 268.174 443.458 268.696C443.665 269.044 443.801 269.429 443.859 269.83C443.916 270.231 443.894 270.639 443.793 271.031C443.692 271.424 443.515 271.792 443.271 272.115C443.027 272.439 442.722 272.711 442.373 272.916Z" fill="#DBDBDB"/>
<path d="M439.207 268.972C438.829 269.195 438.508 269.504 438.272 269.875C438.035 270.245 437.889 270.666 437.845 271.103C437.706 270.606 437.694 270.083 437.81 269.58C437.926 269.078 438.166 268.613 438.509 268.228C438.852 267.843 439.287 267.55 439.772 267.377C440.258 267.204 440.78 267.156 441.289 267.238C441.798 267.319 442.278 267.527 442.686 267.843C443.094 268.159 443.415 268.572 443.621 269.045C443.827 269.518 443.911 270.035 443.864 270.548C443.818 271.062 443.643 271.555 443.356 271.984C443.465 271.459 443.421 270.915 443.229 270.415C443.037 269.914 442.706 269.48 442.274 269.163C441.842 268.846 441.329 268.659 440.794 268.625C440.26 268.591 439.727 268.712 439.259 268.972H439.207Z" fill="#C7C7C7"/>
<path d="M436.677 271.246C436.756 272.061 437.081 272.833 437.61 273.459C438.156 274.1 438.863 274.585 439.658 274.862C440.461 275.179 441.355 275.179 442.158 274.862C442.891 274.509 443.486 273.922 443.848 273.192C443.312 273.739 442.651 274.147 441.922 274.381C441.748 274.436 441.57 274.477 441.389 274.504C441.209 274.524 441.027 274.524 440.846 274.504C440.496 274.493 440.15 274.423 439.822 274.299L439.31 274.094C439.146 274.002 438.982 273.93 438.828 273.828C438.508 273.635 438.209 273.408 437.937 273.151C437.396 272.606 436.968 271.958 436.677 271.246Z" fill="#C7C7C7"/>
<path d="M433.41 272.783C433.267 272.833 433.116 272.855 432.965 272.847C432.814 272.839 432.666 272.801 432.529 272.736C432.393 272.671 432.271 272.58 432.169 272.467C432.068 272.355 431.99 272.224 431.94 272.081C431.889 271.938 431.867 271.787 431.875 271.636C431.883 271.485 431.921 271.337 431.986 271.201C432.051 271.064 432.143 270.942 432.255 270.841C432.368 270.74 432.499 270.662 432.641 270.611C432.93 270.515 433.244 270.536 433.517 270.668C433.791 270.799 434.002 271.033 434.106 271.318C434.208 271.604 434.192 271.92 434.061 272.194C433.931 272.469 433.696 272.681 433.41 272.783Z" fill="#DBDBDB"/>
<path d="M432.58 271.144C432.425 271.198 432.286 271.289 432.174 271.408C432.061 271.528 431.979 271.672 431.935 271.83C431.909 271.576 431.97 271.32 432.107 271.104C432.245 270.889 432.451 270.726 432.693 270.642C432.981 270.546 433.295 270.566 433.568 270.698C433.842 270.83 434.053 271.064 434.157 271.349C434.23 271.554 434.242 271.776 434.193 271.988C434.144 272.2 434.036 272.394 433.881 272.547C433.978 272.304 433.978 272.032 433.881 271.789C433.838 271.661 433.77 271.543 433.682 271.441C433.593 271.339 433.485 271.256 433.365 271.196C433.244 271.136 433.112 271.101 432.977 271.092C432.843 271.083 432.708 271.1 432.58 271.144Z" fill="#C7C7C7"/>
<path d="M431.422 271.769C431.376 272.075 431.43 272.387 431.576 272.66C431.731 272.939 431.957 273.173 432.232 273.336C432.514 273.508 432.852 273.563 433.174 273.49C433.479 273.419 433.748 273.241 433.932 272.988C433.687 273.131 433.415 273.221 433.133 273.254C432.871 273.271 432.61 273.207 432.385 273.07C432.145 272.93 431.936 272.742 431.77 272.518C431.604 272.295 431.486 272.04 431.422 271.769Z" fill="#C7C7C7"/>
<path d="M442.096 279.339C441.776 279.393 441.447 279.351 441.151 279.219C440.855 279.086 440.605 278.869 440.433 278.594C440.261 278.319 440.174 277.999 440.183 277.675C440.192 277.351 440.298 277.037 440.486 276.772C440.674 276.508 440.937 276.305 441.24 276.19C441.543 276.075 441.874 276.053 442.19 276.126C442.506 276.199 442.793 276.364 443.016 276.6C443.238 276.837 443.385 277.134 443.438 277.454C443.475 277.666 443.469 277.883 443.421 278.093C443.373 278.302 443.285 278.501 443.16 278.676C443.035 278.851 442.877 279 442.694 279.114C442.512 279.227 442.308 279.304 442.096 279.339Z" fill="#DBDBDB"/>
<path d="M441.277 276.767C441.047 276.806 440.83 276.899 440.643 277.038C440.456 277.177 440.305 277.358 440.201 277.566C440.227 277.165 440.4 276.787 440.688 276.505C440.975 276.224 441.357 276.059 441.76 276.042C442.162 276.026 442.556 276.159 442.866 276.415C443.176 276.672 443.38 277.035 443.438 277.433C443.489 277.739 443.453 278.053 443.333 278.34C443.213 278.626 443.015 278.873 442.762 279.052C442.956 278.748 443.035 278.385 442.987 278.027C442.96 277.831 442.893 277.643 442.792 277.473C442.691 277.303 442.556 277.155 442.397 277.037C442.238 276.92 442.057 276.836 441.864 276.789C441.672 276.743 441.472 276.735 441.277 276.767Z" fill="#C7C7C7"/>
<path d="M439.576 277.403C439.465 277.821 439.483 278.264 439.627 278.673C439.768 279.091 440.019 279.462 440.355 279.748C440.7 280.044 441.14 280.204 441.594 280.199C442.032 280.18 442.451 280.014 442.782 279.728C442.414 279.9 442.01 279.981 441.604 279.963C441.225 279.928 440.867 279.774 440.58 279.523C440.277 279.267 440.033 278.949 439.863 278.591C439.685 278.219 439.587 277.814 439.576 277.403Z" fill="#C7C7C7"/>
<path d="M447.587 262.806C447.89 263.28 448.33 263.652 448.85 263.87C449.369 264.088 449.942 264.144 450.494 264.028C451.045 263.913 451.549 263.633 451.937 263.225C452.325 262.817 452.58 262.3 452.668 261.744C452.756 261.187 452.672 260.617 452.428 260.109C452.184 259.602 451.792 259.18 451.303 258.901C450.813 258.621 450.251 258.497 449.69 258.545C449.128 258.593 448.595 258.811 448.16 259.169C447.604 259.577 447.231 260.188 447.124 260.869C447.016 261.55 447.183 262.247 447.587 262.806Z" fill="#DBDBDB"/>
<path d="M451.397 260.409C451.624 260.693 451.776 261.03 451.836 261.388C451.897 261.746 451.866 262.114 451.745 262.457C452.116 262.02 452.327 261.469 452.344 260.896C452.361 260.323 452.182 259.761 451.838 259.302C451.363 258.803 450.712 258.511 450.024 258.488C449.336 258.465 448.667 258.713 448.16 259.179C447.766 259.491 447.463 259.902 447.283 260.371C447.103 260.839 447.052 261.348 447.136 261.843C447.261 261.239 447.59 260.696 448.068 260.306C448.524 259.881 449.13 259.653 449.754 259.673C450.377 259.692 450.968 259.956 451.397 260.409Z" fill="#C7C7C7"/>
<path d="M446.48 261.054C446.167 261.693 446.119 262.429 446.347 263.103C446.466 263.447 446.658 263.762 446.91 264.025C447.152 264.3 447.45 264.521 447.784 264.671C448.118 264.821 448.48 264.898 448.846 264.895C449.193 264.903 449.539 264.854 449.871 264.752C450.524 264.553 451.121 264.202 451.612 263.727C451.019 263.974 450.401 264.156 449.768 264.27C449.18 264.375 448.573 264.315 448.017 264.096C447.754 263.97 447.512 263.804 447.3 263.605C447.077 263.41 446.896 263.173 446.767 262.908C446.506 262.327 446.407 261.687 446.48 261.054Z" fill="#C7C7C7"/>
<path d="M380.394 407.306L386.349 408.397L387.678 414.676L389.007 408.397L394.962 407.295L389.029 405.847L387.678 399.924L386.316 405.847L380.394 407.306Z" fill="#C7C7C7"/>
<path d="M0 372.381L5.95478 373.473L7.28405 379.752L8.61335 373.473L14.5681 372.37L8.63495 370.922L7.28405 365L5.92236 370.922L0 372.381Z" fill="#C7C7C7"/>
<path d="M134.757 373.414L140.712 374.517L142.041 380.796L143.37 374.517L149.325 373.414L143.403 371.966L142.041 366.044L140.69 371.966L134.757 373.414Z" fill="#C7C7C7"/>
<path d="M319.582 306.334L325.537 307.436L326.866 313.704L328.195 307.436L334.15 306.334L328.228 304.875L326.866 298.952L325.515 304.875L319.582 306.334Z" fill="#C7C7C7"/>
<path d="M436.98 370.356L440.309 370.972L441.055 374.484L441.801 370.972L445.118 370.356L441.811 369.545L441.055 366.238L440.298 369.545L436.98 370.356Z" fill="#C7C7C7"/>
<path d="M184.481 503.825L187.799 504.441L188.544 507.953L189.29 504.441L192.619 503.825L189.301 503.014L188.544 499.707L187.788 503.014L184.481 503.825Z" fill="#C7C7C7"/>
<path d="M428.843 212.473L432.171 213.089L432.917 216.591L433.652 213.089L436.981 212.463L433.674 211.663L432.917 208.345L432.15 211.663L428.843 212.473Z" fill="#C7C7C7"/>
<path d="M36.3356 287.918L39.6643 288.534L40.41 292.036L41.1449 288.534L44.4735 287.918L41.1665 287.108L40.41 283.79L39.6535 287.108L36.3356 287.918Z" fill="#C7C7C7"/>
<path d="M54.1892 466.443L57.5178 467.059L58.2635 470.56L58.9984 467.059L62.327 466.443L59.02 465.632L58.2635 462.314L57.4962 465.632L54.1892 466.443Z" fill="#C7C7C7"/>
<path d="M416.004 301.319L419.332 301.935L420.067 305.437L420.813 301.935L424.142 301.319L420.835 300.509L420.067 297.191L419.311 300.509L416.004 301.319Z" fill="#C7C7C7"/>
<path d="M275.651 414.676L278.979 415.292L279.725 418.804L280.471 415.292L283.799 414.676L280.481 413.866L279.725 410.559L278.968 413.866L275.651 414.676Z" fill="#C7C7C7"/>
<path d="M154.567 133.019L157.895 133.635L158.641 137.136L159.387 133.635L162.704 133.019L159.397 132.208L158.641 128.89L157.884 132.208L154.567 133.019Z" fill="#C7C7C7"/>
<path d="M284.826 401.934L288.154 402.55L288.9 406.063L289.646 402.55L292.974 401.934L289.657 401.124L288.9 397.806L288.144 401.124L284.826 401.934Z" fill="#C7C7C7"/>
<path d="M176.602 511.411C176.841 511.437 177.062 511.55 177.223 511.728C177.384 511.907 177.473 512.138 177.473 512.379C177.473 512.619 177.384 512.851 177.223 513.029C177.062 513.208 176.841 513.321 176.602 513.346C176.364 513.321 176.142 513.208 175.982 513.029C175.821 512.851 175.732 512.619 175.732 512.379C175.732 512.138 175.821 511.907 175.982 511.728C176.142 511.55 176.364 511.437 176.602 511.411Z" fill="#C7C7C7"/>
<path d="M348.664 330.51C348.903 330.535 349.124 330.648 349.285 330.826C349.445 331.005 349.534 331.237 349.534 331.477C349.534 331.717 349.445 331.949 349.285 332.127C349.124 332.306 348.903 332.419 348.664 332.444C348.425 332.419 348.204 332.306 348.043 332.127C347.883 331.949 347.794 331.717 347.794 331.477C347.794 331.237 347.883 331.005 348.043 330.826C348.204 330.648 348.425 330.535 348.664 330.51Z" fill="#C7C7C7"/>
<path d="M266.367 411.769C266.622 411.769 266.867 411.87 267.047 412.051C267.228 412.231 267.329 412.476 267.329 412.731C267.329 412.986 267.228 413.231 267.047 413.411C266.867 413.591 266.622 413.693 266.367 413.693C266.112 413.693 265.867 413.591 265.687 413.411C265.507 413.231 265.405 412.986 265.405 412.731C265.405 412.476 265.507 412.231 265.687 412.051C265.867 411.87 266.112 411.769 266.367 411.769Z" fill="#C7C7C7"/>
<path d="M123.312 504.181C123.567 504.181 123.812 504.283 123.992 504.463C124.173 504.644 124.274 504.888 124.274 505.143C124.274 505.398 124.173 505.643 123.992 505.823C123.812 506.004 123.567 506.105 123.312 506.105C123.057 506.105 122.812 506.004 122.632 505.823C122.452 505.643 122.35 505.398 122.35 505.143C122.35 504.888 122.452 504.644 122.632 504.463C122.812 504.283 123.057 504.181 123.312 504.181Z" fill="#C7C7C7"/>
<path d="M445.302 516.956C445.541 516.981 445.762 517.094 445.923 517.272C446.083 517.451 446.172 517.683 446.172 517.923C446.172 518.163 446.083 518.395 445.923 518.573C445.762 518.752 445.541 518.865 445.302 518.89C445.063 518.865 444.842 518.752 444.681 518.573C444.521 518.395 444.432 518.163 444.432 517.923C444.432 517.683 444.521 517.451 444.681 517.272C444.842 517.094 445.063 516.981 445.302 516.956Z" fill="#C7C7C7"/>
<path d="M394.562 343.154C394.817 343.154 395.062 343.255 395.242 343.436C395.423 343.616 395.524 343.861 395.524 344.116C395.524 344.371 395.423 344.616 395.242 344.796C395.062 344.976 394.817 345.078 394.562 345.078C394.307 345.078 394.063 344.976 393.882 344.796C393.702 344.616 393.6 344.371 393.6 344.116C393.6 343.861 393.702 343.616 393.882 343.436C394.063 343.255 394.307 343.154 394.562 343.154Z" fill="#C7C7C7"/>
<path d="M200.767 494.066C200.948 494.066 201.121 494.138 201.249 494.265C201.376 494.393 201.448 494.566 201.448 494.747C201.448 494.927 201.376 495.101 201.249 495.228C201.121 495.356 200.948 495.428 200.767 495.428C200.587 495.428 200.414 495.356 200.286 495.228C200.158 495.101 200.086 494.927 200.086 494.747C200.086 494.566 200.158 494.393 200.286 494.265C200.414 494.138 200.587 494.066 200.767 494.066Z" fill="#C7C7C7"/>
<path d="M64.5101 139.773C64.6772 139.794 64.831 139.876 64.9425 140.002C65.0539 140.128 65.1154 140.291 65.1154 140.459C65.1154 140.628 65.0539 140.791 64.9425 140.917C64.831 141.043 64.6772 141.125 64.5101 141.146C64.3429 141.125 64.1891 141.043 64.0777 140.917C63.9662 140.791 63.9047 140.628 63.9047 140.459C63.9047 140.291 63.9662 140.128 64.0777 140.002C64.1891 139.876 64.3429 139.794 64.5101 139.773Z" fill="#C7C7C7"/>
<path d="M327.709 359.084C327.889 359.084 328.063 359.156 328.19 359.283C328.318 359.411 328.39 359.584 328.39 359.765C328.39 359.945 328.318 360.118 328.19 360.246C328.063 360.374 327.889 360.446 327.709 360.446C327.528 360.446 327.355 360.374 327.227 360.246C327.1 360.118 327.028 359.945 327.028 359.765C327.028 359.584 327.1 359.411 327.227 359.283C327.355 359.156 327.528 359.084 327.709 359.084Z" fill="#C7C7C7"/>
<path d="M294.704 418.124C294.884 418.124 295.057 418.195 295.185 418.323C295.313 418.451 295.384 418.624 295.384 418.805C295.384 418.985 295.313 419.158 295.185 419.286C295.057 419.414 294.884 419.485 294.704 419.485C294.523 419.485 294.35 419.414 294.222 419.286C294.094 419.158 294.023 418.985 294.023 418.805C294.023 418.624 294.094 418.451 294.222 418.323C294.35 418.195 294.523 418.124 294.704 418.124Z" fill="#C7C7C7"/>
<path d="M240.722 406.614C240.889 406.635 241.043 406.716 241.154 406.843C241.265 406.969 241.327 407.132 241.327 407.3C241.327 407.469 241.265 407.631 241.154 407.758C241.043 407.884 240.889 407.965 240.722 407.987C240.554 407.965 240.401 407.884 240.289 407.758C240.178 407.631 240.116 407.469 240.116 407.3C240.116 407.132 240.178 406.969 240.289 406.843C240.401 406.716 240.554 406.635 240.722 406.614Z" fill="#C7C7C7"/>
<path d="M304.538 346.688C305.028 346.688 305.498 346.883 305.845 347.229C306.192 347.576 306.386 348.046 306.386 348.536C306.386 349.026 306.192 349.496 305.845 349.843C305.498 350.189 305.028 350.384 304.538 350.384C304.048 350.384 303.578 350.189 303.231 349.843C302.885 349.496 302.69 349.026 302.69 348.536C302.69 348.046 302.885 347.576 303.231 347.229C303.578 346.883 304.048 346.688 304.538 346.688Z" fill="#C7C7C7"/>
<path d="M209.899 159.929L215.854 161.031L217.183 167.299L218.513 161.031L224.468 159.929L218.534 158.48L217.183 152.547L215.822 158.48L209.899 159.929Z" fill="#C7C7C7"/>
<path d="M232.584 105.601L235.912 106.217L236.658 109.718L237.404 106.217L240.722 105.601L237.415 104.79L236.658 101.472L235.902 104.79L232.584 105.601Z" fill="#C7C7C7"/>
<path d="M30.878 195.625C31.1331 195.625 31.3778 195.726 31.5582 195.907C31.7385 196.087 31.8399 196.332 31.8399 196.587C31.8399 196.842 31.7385 197.086 31.5582 197.267C31.3778 197.447 31.1331 197.549 30.878 197.549C30.6229 197.549 30.3783 197.447 30.1979 197.267C30.0175 197.086 29.9162 196.842 29.9162 196.587C29.9162 196.332 30.0175 196.087 30.1979 195.907C30.3783 195.726 30.6229 195.625 30.878 195.625Z" fill="#C7C7C7"/>
<path d="M46.0297 451.432C46.2686 451.457 46.4897 451.57 46.6504 451.748C46.8111 451.927 46.9 452.159 46.9 452.399C46.9 452.639 46.8111 452.871 46.6504 453.049C46.4897 453.228 46.2686 453.341 46.0297 453.366C45.7908 453.341 45.5697 453.228 45.409 453.049C45.2484 452.871 45.1595 452.639 45.1595 452.399C45.1595 452.159 45.2484 451.927 45.409 451.748C45.5697 451.57 45.7908 451.457 46.0297 451.432Z" fill="#C7C7C7"/>
<path d="M19.9087 499.307C20.1476 499.333 20.3687 499.445 20.5294 499.624C20.6901 499.803 20.779 500.034 20.779 500.275C20.779 500.515 20.6901 500.747 20.5294 500.925C20.3687 501.104 20.1476 501.217 19.9087 501.242C19.6698 501.217 19.4487 501.104 19.288 500.925C19.1274 500.747 19.0385 500.515 19.0385 500.275C19.0385 500.034 19.1274 499.803 19.288 499.624C19.4487 499.445 19.6698 499.333 19.9087 499.307Z" fill="#C7C7C7"/>
<path d="M69.3085 276.484C69.5474 276.51 69.7685 276.622 69.9291 276.801C70.0898 276.98 70.1787 277.211 70.1787 277.452C70.1787 277.692 70.0898 277.924 69.9291 278.102C69.7685 278.281 69.5474 278.393 69.3085 278.419C69.0696 278.393 68.8485 278.281 68.6878 278.102C68.5271 277.924 68.4382 277.692 68.4382 277.452C68.4382 277.211 68.5271 276.98 68.6878 276.801C68.8485 276.622 69.0696 276.51 69.3085 276.484Z" fill="#C7C7C7"/>
<path d="M19.9087 109.999C20.1476 110.025 20.3687 110.137 20.5294 110.316C20.6901 110.495 20.779 110.726 20.779 110.967C20.779 111.207 20.6901 111.439 20.5294 111.617C20.3687 111.796 20.1476 111.909 19.9087 111.934C19.6698 111.909 19.4487 111.796 19.288 111.617C19.1274 111.439 19.0385 111.207 19.0385 110.967C19.0385 110.726 19.1274 110.495 19.288 110.316C19.4487 110.137 19.6698 110.025 19.9087 109.999Z" fill="#C7C7C7"/>
<path d="M107.469 405.447C107.636 405.468 107.79 405.549 107.901 405.676C108.013 405.802 108.074 405.965 108.074 406.133C108.074 406.302 108.013 406.464 107.901 406.591C107.79 406.717 107.636 406.798 107.469 406.819C107.302 406.798 107.148 406.717 107.036 406.591C106.925 406.464 106.863 406.302 106.863 406.133C106.863 405.965 106.925 405.802 107.036 405.676C107.148 405.549 107.302 405.468 107.469 405.447Z" fill="#C7C7C7"/>
<path d="M251.399 492.91C251.58 492.91 251.753 492.981 251.881 493.109C252.008 493.237 252.08 493.41 252.08 493.59C252.08 493.771 252.008 493.944 251.881 494.072C251.753 494.2 251.58 494.271 251.399 494.271C251.219 494.271 251.045 494.2 250.918 494.072C250.79 493.944 250.718 493.771 250.718 493.59C250.718 493.41 250.79 493.237 250.918 493.109C251.045 492.981 251.219 492.91 251.399 492.91Z" fill="#C7C7C7"/>
<path d="M352.728 180.743C352.895 180.764 353.048 180.846 353.16 180.972C353.271 181.098 353.333 181.261 353.333 181.43C353.333 181.598 353.271 181.761 353.16 181.887C353.048 182.013 352.895 182.095 352.728 182.116C352.56 182.095 352.407 182.013 352.295 181.887C352.184 181.761 352.122 181.598 352.122 181.43C352.122 181.261 352.184 181.098 352.295 180.972C352.407 180.846 352.56 180.764 352.728 180.743Z" fill="#C7C7C7"/>
<path d="M229.471 138.963C229.652 138.963 229.825 139.034 229.953 139.162C230.08 139.29 230.152 139.463 230.152 139.643C230.152 139.824 230.08 139.997 229.953 140.125C229.825 140.253 229.652 140.324 229.471 140.324C229.291 140.324 229.118 140.253 228.99 140.125C228.862 139.997 228.79 139.824 228.79 139.643C228.79 139.463 228.862 139.29 228.99 139.162C229.118 139.034 229.291 138.963 229.471 138.963Z" fill="#C7C7C7"/>
<path d="M188.544 381.206C189.035 381.206 189.505 381.401 189.851 381.747C190.198 382.094 190.392 382.564 190.392 383.054C190.392 383.544 190.198 384.014 189.851 384.361C189.505 384.708 189.035 384.902 188.544 384.902C188.054 384.902 187.584 384.708 187.238 384.361C186.891 384.014 186.696 383.544 186.696 383.054C186.696 382.564 186.891 382.094 187.238 381.747C187.584 381.401 188.054 381.206 188.544 381.206Z" fill="#C7C7C7"/>
<path d="M432.096 241.501C432.563 241.537 432.999 241.748 433.318 242.091C433.636 242.435 433.813 242.886 433.813 243.355C433.813 243.823 433.636 244.274 433.318 244.618C432.999 244.962 432.563 245.173 432.096 245.208C431.629 245.173 431.192 244.962 430.874 244.618C430.555 244.274 430.378 243.823 430.378 243.355C430.378 242.886 430.555 242.435 430.874 242.091C431.192 241.748 431.629 241.537 432.096 241.501Z" fill="#C7C7C7"/>
<path d="M53.7137 403.599C54.2038 403.599 54.6739 403.793 55.0204 404.14C55.367 404.487 55.5617 404.957 55.5617 405.447C55.5617 405.937 55.367 406.407 55.0204 406.754C54.6739 407.1 54.2038 407.295 53.7137 407.295C53.2235 407.295 52.7535 407.1 52.4069 406.754C52.0603 406.407 51.8656 405.937 51.8656 405.447C51.8656 404.957 52.0603 404.487 52.4069 404.14C52.7535 403.793 53.2235 403.599 53.7137 403.599Z" fill="#C7C7C7"/>
<path d="M209.035 332.444L212.364 333.06L213.109 336.562L213.855 333.06L217.184 332.444L213.866 331.633L213.109 328.316L212.353 331.633L209.035 332.444Z" fill="#C7C7C7"/>
<path d="M279.725 500.248L283.053 500.864L283.799 504.365L284.534 500.864L287.863 500.237L284.556 499.437L283.799 496.119L283.032 499.437L279.725 500.248Z" fill="#C7C7C7"/>
<path d="M294.466 457.03C294.705 457.055 294.926 457.168 295.087 457.346C295.247 457.525 295.336 457.757 295.336 457.997C295.336 458.237 295.247 458.469 295.087 458.647C294.926 458.826 294.705 458.939 294.466 458.964C294.227 458.939 294.006 458.826 293.845 458.647C293.684 458.469 293.596 458.237 293.596 457.997C293.596 457.757 293.684 457.525 293.845 457.346C294.006 457.168 294.227 457.055 294.466 457.03Z" fill="#C7C7C7"/>
<path d="M332.032 431.373C332.271 431.399 332.492 431.511 332.652 431.69C332.813 431.869 332.902 432.1 332.902 432.341C332.902 432.581 332.813 432.812 332.652 432.991C332.492 433.17 332.271 433.282 332.032 433.308C331.793 433.282 331.572 433.17 331.411 432.991C331.25 432.812 331.161 432.581 331.161 432.341C331.161 432.1 331.25 431.869 331.411 431.69C331.572 431.511 331.793 431.399 332.032 431.373Z" fill="#C7C7C7"/>
<path d="M213.109 475.672L216.438 476.288L217.184 479.8L217.929 476.288L221.258 475.672L217.94 474.862L217.184 471.544L216.427 474.862L213.109 475.672Z" fill="#C7C7C7"/>
<path d="M350.08 165.019C350.319 165.044 350.54 165.157 350.7 165.335C350.861 165.514 350.95 165.746 350.95 165.986C350.95 166.226 350.861 166.458 350.7 166.637C350.54 166.815 350.319 166.928 350.08 166.953C349.841 166.928 349.62 166.815 349.459 166.637C349.298 166.458 349.21 166.226 349.21 165.986C349.21 165.746 349.298 165.514 349.459 165.335C349.62 165.157 349.841 165.044 350.08 165.019Z" fill="#C7C7C7"/>
<path d="M373.283 434.464C373.463 434.464 373.637 434.536 373.764 434.664C373.892 434.791 373.964 434.964 373.964 435.145C373.964 435.326 373.892 435.499 373.764 435.626C373.637 435.754 373.463 435.826 373.283 435.826C373.102 435.826 372.929 435.754 372.801 435.626C372.674 435.499 372.602 435.326 372.602 435.145C372.602 434.964 372.674 434.791 372.801 434.664C372.929 434.536 373.102 434.464 373.283 434.464Z" fill="#C7C7C7"/>
<path d="M82.9472 318.416L86.2758 319.032L87.0107 322.534L87.7564 319.032L91.085 318.416L87.778 317.606L87.0107 314.288L86.2542 317.606L82.9472 318.416Z" fill="#C7C7C7"/>
<path d="M44.4735 371.491C44.7286 371.491 44.9733 371.592 45.1537 371.772C45.334 371.953 45.4354 372.197 45.4354 372.452C45.4354 372.707 45.334 372.952 45.1537 373.132C44.9733 373.313 44.7286 373.414 44.4735 373.414C44.2184 373.414 43.9738 373.313 43.7934 373.132C43.613 372.952 43.5117 372.707 43.5117 372.452C43.5117 372.197 43.613 371.953 43.7934 371.772C43.9738 371.592 44.2184 371.491 44.4735 371.491Z" fill="#C7C7C7"/>
<path d="M177.489 300.455C177.744 300.455 177.988 300.556 178.169 300.736C178.349 300.917 178.45 301.162 178.45 301.417C178.45 301.672 178.349 301.916 178.169 302.097C177.988 302.277 177.744 302.378 177.489 302.378C177.234 302.378 176.989 302.277 176.808 302.097C176.628 301.916 176.527 301.672 176.527 301.417C176.527 301.162 176.628 300.917 176.808 300.736C176.989 300.556 177.234 300.455 177.489 300.455Z" fill="#C7C7C7"/>
<path d="M64.5101 203.006C64.6772 203.027 64.831 203.109 64.9425 203.235C65.0539 203.361 65.1154 203.524 65.1154 203.692C65.1154 203.861 65.0539 204.024 64.9425 204.15C64.831 204.276 64.6772 204.358 64.5101 204.379C64.3429 204.358 64.1891 204.276 64.0777 204.15C63.9662 204.024 63.9047 203.861 63.9047 203.692C63.9047 203.524 63.9662 203.361 64.0777 203.235C64.1891 203.109 64.3429 203.027 64.5101 203.006Z" fill="#C7C7C7"/>
<path d="M55.767 196.706C56.2572 196.706 56.7272 196.9 57.0738 197.247C57.4204 197.593 57.6151 198.063 57.6151 198.554C57.6151 199.044 57.4204 199.514 57.0738 199.86C56.7272 200.207 56.2572 200.402 55.767 200.402C55.2769 200.402 54.8069 200.207 54.4603 199.86C54.1137 199.514 53.919 199.044 53.919 198.554C53.919 198.063 54.1137 197.593 54.4603 197.247C54.8069 196.9 55.2769 196.706 55.767 196.706Z" fill="#C7C7C7"/>
<path d="M433.879 115.1C434.369 115.1 434.839 115.295 435.186 115.642C435.532 115.988 435.727 116.458 435.727 116.948C435.727 117.438 435.532 117.909 435.186 118.255C434.839 118.602 434.369 118.796 433.879 118.796C433.389 118.796 432.919 118.602 432.572 118.255C432.226 117.909 432.031 117.438 432.031 116.948C432.031 116.458 432.226 115.988 432.572 115.642C432.919 115.295 433.389 115.1 433.879 115.1Z" fill="#C7C7C7"/>
</svg>
