<svg width="360" height="428" viewBox="0 0 360 428" fill="none" xmlns="http://www.w3.org/2000/svg">
<path d="M314.806 403.404C328.953 390.054 329.599 367.763 316.249 353.615C302.899 339.468 280.608 338.822 266.46 352.172C252.313 365.523 251.667 387.814 265.017 401.961C278.368 416.108 300.659 416.754 314.806 403.404Z" fill="#455A64"/>
<path d="M257.856 390.739C260.899 387.637 264.411 385.033 268.263 383.023C274.975 379.392 293.628 374.517 302.036 369.384C313.859 362.176 314.853 355.335 314.507 351.898C311.167 348.837 307.271 346.445 303.03 344.852C302.436 348.472 300.026 359.809 280.151 368.628C269.884 373.199 259.618 371.524 256.073 370.962C254.751 377.589 255.37 384.456 257.856 390.739Z" fill="#F8CBD0"/>
<path d="M273.732 408.722C280.823 412.587 289.025 413.903 296.969 412.449C304.914 410.996 312.119 406.861 317.382 400.736C315.309 399.81 313.132 399.139 310.898 398.736C301.269 397.202 291.239 402.562 287.619 404.994C283.585 407.857 278.658 409.18 273.732 408.722Z" fill="#F9D0D4"/>
<path d="M260.363 395.84L260.871 396.661L261.347 397.386C261.714 397.937 262.082 398.466 262.427 398.996C262.773 399.525 263.151 399.925 263.508 400.368L263.93 400.865L264.416 401.417C264.578 401.6 264.74 401.784 264.913 401.957L265.518 402.584L266.123 403.189L266.664 403.697C267.064 404.064 267.474 404.421 267.885 404.778C270.122 405.264 273.029 404.778 277.168 402.703C283.35 399.687 289.737 393.117 301.701 387.691C309.095 384.409 317.25 383.227 325.271 384.276C326.611 377.126 325.697 369.736 322.656 363.127C320.408 363.224 313.264 364.834 298.88 378.776C294.42 383.23 289.513 387.214 284.236 390.663C271.646 398.607 263.876 397.148 260.579 395.84H260.363Z" fill="#37474F"/>
<path d="M292.299 357.507C293.055 358.88 295.281 359.106 297.281 358.015C299.28 356.923 300.274 354.913 299.529 353.541C298.783 352.168 296.546 351.952 294.546 353.044C292.547 354.135 291.553 356.08 292.299 357.507Z" fill="#263238"/>
<path d="M302.457 359.052C302.879 359.82 304.197 359.917 305.397 359.258C306.596 358.598 307.212 357.442 306.791 356.675C306.369 355.908 305.051 355.799 303.851 356.459C302.652 357.118 302.036 358.274 302.457 359.052Z" fill="#263238"/>
<path d="M279.179 404.605C279.827 405.783 281.761 405.956 283.501 404.994C285.241 404.032 286.138 402.314 285.501 401.136C284.863 399.958 282.918 399.796 281.178 400.747C279.438 401.698 278.541 403.438 279.179 404.605Z" fill="#263238"/>
<path d="M285.749 405.232C285.833 405.591 286.026 405.915 286.303 406.158C286.58 406.401 286.927 406.552 287.294 406.587C287.661 406.623 288.03 406.543 288.349 406.359C288.668 406.174 288.921 405.893 289.072 405.557C289.223 405.221 289.265 404.846 289.192 404.484C289.119 404.123 288.934 403.794 288.664 403.543C288.393 403.292 288.051 403.133 287.686 403.086C287.32 403.04 286.949 403.11 286.625 403.286C286.257 403.436 285.961 403.721 285.798 404.084C285.635 404.446 285.617 404.857 285.749 405.232Z" fill="#263238"/>
<path d="M286.495 401.881C286.653 402.071 286.878 402.193 287.122 402.223C287.367 402.253 287.614 402.189 287.814 402.044C288.343 401.752 288.602 401.211 288.397 400.844C288.237 400.654 288.011 400.532 287.764 400.502C287.518 400.472 287.269 400.536 287.068 400.682C286.549 400.974 286.29 401.514 286.495 401.881Z" fill="#263238"/>
<path d="M308.38 399.796C308.952 400.876 310.541 401.071 311.946 400.304C313.351 399.536 314.01 398.066 313.437 397.061C312.865 396.056 311.276 395.786 309.871 396.553C308.466 397.321 307.807 398.747 308.38 399.796Z" fill="#263238"/>
<path d="M307.094 395.094C307.2 395.356 307.383 395.579 307.619 395.734C307.855 395.889 308.132 395.969 308.415 395.963C308.697 395.957 308.971 395.865 309.2 395.7C309.429 395.536 309.602 395.305 309.697 395.039C309.793 394.773 309.805 394.485 309.733 394.212C309.66 393.939 309.507 393.695 309.292 393.511C309.078 393.327 308.813 393.213 308.532 393.183C308.252 393.153 307.969 393.209 307.72 393.344C307.406 393.493 307.163 393.762 307.046 394.09C306.928 394.418 306.946 394.779 307.094 395.094Z" fill="#263238"/>
<path d="M262.471 398.996C284.301 394.374 305.557 387.364 325.855 378.095C341.633 370.681 351.371 363.581 350.052 359.571C348.734 355.562 336.9 355.508 320.224 358.717C320.678 359.42 321.1 360.133 321.51 360.879C321.662 361.16 321.802 361.441 321.953 361.711C330.826 360.576 336.705 361.095 337.505 363.537C338.305 365.98 333.744 370.022 325.693 374.431C315.516 379.775 304.888 384.209 293.93 387.681C283.025 391.382 271.814 394.113 260.428 395.84C251.361 397.04 245.298 396.532 244.52 394.057C243.742 391.582 248.14 387.735 255.911 383.401C255.716 382.22 255.586 381.03 255.522 379.835C239.765 387.227 229.887 394.576 231.249 398.574C232.61 402.573 244.941 402.53 262.471 398.996Z" fill="#263238"/>
<path d="M264.459 401.406C274.983 399.151 285.382 396.351 295.616 393.019C305.811 389.757 315.832 385.973 325.639 381.683C347.556 371.956 361.551 362.046 359.725 356.361C357.898 350.677 341.05 350.796 317.966 355.605C318.301 356.026 318.636 356.459 318.96 356.902C338.348 353.184 352.246 353.389 353.813 358.263C355.38 363.138 344.011 371.6 325.779 380.008C315.825 384.522 305.616 388.456 295.206 391.787C284.761 395.188 274.127 397.974 263.357 400.131C243.742 403.935 229.649 403.751 228.071 398.834C226.493 393.916 237.582 385.725 255.392 377.435C255.392 376.884 255.392 376.355 255.457 375.782C233.994 385.346 220.355 395.127 222.16 400.747C223.965 406.366 241.105 406.312 264.459 401.406Z" fill="#37474F"/>
<path d="M171.625 183.209C182.487 179.501 188.286 167.689 184.578 156.827C180.869 145.965 169.058 140.165 158.195 143.874C147.333 147.582 141.534 159.394 145.242 170.256C148.951 181.118 160.762 186.918 171.625 183.209Z" fill="#EBEBEB"/>
<path d="M184.812 169.565C182.875 167.887 180.687 166.523 178.327 165.524C174.21 163.708 163.003 161.719 157.794 159.093C150.499 155.419 149.591 151.453 149.634 149.367C151.448 147.405 153.624 145.812 156.043 144.676C156.562 146.773 158.518 153.322 170.633 157.645C176.89 159.807 182.877 158.38 184.909 157.883C186 161.705 185.967 165.762 184.812 169.565Z" fill="#DBDBDB"/>
<path d="M176.328 180.902C172.343 183.519 167.58 184.688 162.836 184.211C158.093 183.735 153.657 181.644 150.272 178.287C151.449 177.642 152.701 177.144 154 176.806C159.588 175.444 165.737 178.114 167.985 179.378C170.495 180.866 173.454 181.407 176.328 180.902Z" fill="#DBDBDB"/>
<path d="M183.558 172.689L183.299 173.186C183.223 173.348 183.137 173.488 183.05 173.64C182.863 173.986 182.668 174.321 182.467 174.645C182.283 174.937 182.088 175.218 181.894 175.499L181.667 175.812L181.397 176.125L181.126 176.471C181.026 176.601 180.917 176.731 180.802 176.86C180.687 176.99 180.579 177.12 180.478 177.249L180.175 177.574C179.959 177.811 179.743 178.038 179.516 178.265C178.23 178.665 176.49 178.492 173.961 177.487C170.179 176.007 166.115 172.44 158.831 169.825C154.34 168.251 149.502 167.941 144.847 168.928C143.72 164.787 143.909 160.398 145.387 156.37C146.705 156.316 150.985 156.921 160.085 164.443C162.922 166.842 165.997 168.945 169.26 170.722C177.052 174.796 181.548 173.586 183.428 172.646H183.558V172.689Z" fill="#DBDBDB"/>
<path d="M163.824 180.502C164.191 179.659 165.488 179.421 166.72 179.951C167.952 180.48 168.644 181.604 168.277 182.447C167.909 183.29 166.612 183.528 165.38 183.009C164.148 182.491 163.457 181.356 163.824 180.502Z" fill="#C7C7C7"/>
<path d="M169.703 179.021C169.908 178.546 170.676 178.427 171.422 178.751C172.167 179.076 172.589 179.713 172.383 180.189C172.178 180.664 171.4 180.794 170.665 180.47C169.93 180.145 169.509 179.508 169.703 179.021Z" fill="#C7C7C7"/>
<path d="M153.59 153.495C153.903 152.782 155.027 152.566 156.108 153.041C157.188 153.517 157.804 154.479 157.48 155.203C157.156 155.927 156.043 156.132 154.962 155.657C153.881 155.181 153.298 154.219 153.59 153.495Z" fill="#C7C7C7"/>
<path d="M157.415 152.782C157.54 152.583 157.738 152.441 157.966 152.387C158.195 152.332 158.435 152.369 158.637 152.49C158.858 152.558 159.044 152.708 159.159 152.908C159.273 153.109 159.307 153.346 159.253 153.571C159.099 153.722 158.904 153.823 158.692 153.862C158.48 153.901 158.262 153.876 158.064 153.79C157.867 153.704 157.7 153.561 157.584 153.38C157.469 153.198 157.41 152.986 157.415 152.771V152.782Z" fill="#C7C7C7"/>
<path d="M158.031 154.706C158.115 154.586 158.24 154.503 158.383 154.473C158.525 154.443 158.674 154.468 158.799 154.543C159.123 154.684 159.296 154.987 159.199 155.214C159.119 155.337 158.994 155.424 158.85 155.457C158.707 155.489 158.556 155.464 158.431 155.386C158.29 155.346 158.17 155.253 158.095 155.126C158.021 154.999 157.998 154.849 158.031 154.706Z" fill="#C7C7C7"/>
<path d="M171 154.76C171.044 154.391 171.203 154.046 171.454 153.772C171.705 153.499 172.036 153.311 172.399 153.235C172.763 153.16 173.141 153.2 173.48 153.351C173.819 153.502 174.102 153.755 174.29 154.076C174.477 154.396 174.559 154.767 174.524 155.137C174.489 155.507 174.339 155.856 174.095 156.136C173.851 156.415 173.526 156.612 173.164 156.696C172.803 156.781 172.424 156.75 172.081 156.608C171.695 156.501 171.367 156.248 171.165 155.903C170.963 155.558 170.904 155.148 171 154.76Z" fill="#C7C7C7"/>
<path d="M170.503 157.591C170.597 157.403 170.76 157.258 170.958 157.187C171.156 157.116 171.374 157.123 171.567 157.208C171.76 157.292 171.913 157.447 171.994 157.641C172.076 157.836 172.08 158.053 172.005 158.25C171.911 158.438 171.748 158.583 171.55 158.654C171.352 158.726 171.134 158.718 170.941 158.634C170.748 158.549 170.595 158.394 170.514 158.2C170.432 158.006 170.428 157.788 170.503 157.591Z" fill="#C7C7C7"/>
<g opacity="0.1">
<path opacity="0.1" d="M40.6898 24.8782C38.7525 23.201 36.5646 21.8372 34.2055 20.8363C30.0772 19.0207 18.9025 17.0754 13.6826 14.4169C6.38775 10.7316 5.47995 6.76535 5.52318 4.69036C7.33904 2.72592 9.51926 1.13296 11.9427 3.05176e-05C12.4614 2.09663 14.4067 8.6458 26.5216 12.9687C32.779 15.1301 38.7662 13.6928 40.7979 13.1956C41.8858 17.0192 41.8483 21.0754 40.6898 24.8782Z" fill="#9E1414"/>
<path opacity="0.1" d="M32.1954 36.215C28.2081 38.8269 23.4451 39.9911 18.7025 39.5131C13.9599 39.0351 9.5251 36.9439 6.1392 33.5888C7.31733 32.9458 8.56937 32.4486 9.86768 32.1083C15.455 30.7465 21.6151 33.4267 23.9171 34.6804C26.4063 36.1597 29.3412 36.7038 32.1954 36.215Z" fill="black"/>
<path opacity="0.1" d="M39.4362 28.0015C39.3584 28.1751 39.2718 28.3446 39.1768 28.5095C39.1012 28.6608 39.0255 28.8121 38.9391 28.9634C38.7445 29.2984 38.55 29.6334 38.3447 29.9576C38.1393 30.2818 37.9772 30.5412 37.7719 30.8222L37.5449 31.1248C37.4646 31.2445 37.378 31.36 37.2856 31.4706L37.0262 31.8165L36.702 32.2163L36.367 32.5946L36.0752 32.9296C35.859 33.1674 35.6321 33.3943 35.4051 33.6105C34.1082 33.9995 32.3791 33.8266 29.8394 32.8323C26.0677 31.3518 21.9934 27.7854 14.7093 25.1592C10.2204 23.5914 5.38813 23.2812 0.735596 24.2622C-0.401665 20.1125 -0.216557 15.7114 1.26515 11.6718C2.59443 11.6178 6.86328 12.223 15.9738 19.7448C18.8049 22.1519 21.8801 24.2564 25.1491 26.0238C32.9519 30.1522 37.4369 28.9634 39.3173 27.9907H39.4362V28.0015Z" fill="#37474F"/>
</g>
<g opacity="0.1">
<path opacity="0.1" d="M17.916 36.0098C18.2834 35.156 19.5803 34.9291 20.8123 35.4478C22.0443 35.9666 22.7468 37.1013 22.3793 37.9443C22.0119 38.7872 20.7042 39.025 19.483 38.5063C18.2618 37.9875 17.5485 36.8527 17.916 36.0098Z" fill="black"/>
<path opacity="0.1" d="M23.8059 34.5508C24.0112 34.0753 24.7785 33.9456 25.5134 34.2698C26.2483 34.5941 26.6806 35.2425 26.4752 35.718C26.2699 36.1935 25.5026 36.3124 24.7569 35.999C24.0112 35.6856 23.6113 35.0047 23.8059 34.5508Z" fill="black"/>
<path opacity="0.1" d="M7.68152 9.00251C7.99493 8.27843 9.11887 8.07309 10.1996 8.5378C11.2803 9.00251 11.8963 9.97516 11.5829 10.6992C11.2695 11.4233 10.1348 11.6287 9.05403 11.1531C7.97331 10.6776 7.40053 9.69417 7.68152 9.00251Z" fill="black"/>
<path opacity="0.1" d="M11.5073 8.27848C11.634 8.08187 11.8318 7.94177 12.0593 7.88741C12.2868 7.83304 12.5266 7.8686 12.7285 7.98668C12.8491 8.00336 12.9641 8.04771 13.0647 8.11624C13.1652 8.18478 13.2486 8.27564 13.3082 8.38174C13.3678 8.48784 13.402 8.60629 13.4083 8.72782C13.4145 8.84936 13.3925 8.97068 13.344 9.08231C13.2956 9.19394 13.2219 9.29284 13.1289 9.37129C13.0359 9.44974 12.926 9.5056 12.8077 9.5345C12.6895 9.56341 12.5662 9.56457 12.4475 9.53791C12.3288 9.51125 12.2178 9.45748 12.1233 9.3808C11.8992 9.31064 11.7104 9.15729 11.5959 8.95227C11.4813 8.74725 11.4496 8.50614 11.5073 8.27848Z" fill="black"/>
<path opacity="0.1" d="M12.1233 10.213C12.205 10.0916 12.3299 10.0061 12.4726 9.97398C12.6153 9.94182 12.7648 9.96546 12.8906 10.04C13.2148 10.1913 13.3986 10.4831 13.3013 10.7209C13.2164 10.8384 13.0908 10.9201 12.9489 10.9501C12.8071 10.98 12.6592 10.9561 12.534 10.883C12.2098 10.7749 12.026 10.4399 12.1233 10.213Z" fill="black"/>
<path opacity="0.1" d="M25.1028 10.2561C25.1504 9.89146 25.3109 9.55082 25.5619 9.282C25.8129 9.01317 26.1417 8.82965 26.5023 8.75716C26.8629 8.68466 27.2371 8.72684 27.5725 8.87777C27.9078 9.02871 28.1876 9.28083 28.3724 9.59877C28.5573 9.91672 28.638 10.2845 28.6032 10.6507C28.5684 11.0168 28.42 11.3629 28.1786 11.6404C27.9372 11.9178 27.615 12.1128 27.2572 12.1979C26.8994 12.283 26.524 12.254 26.1835 12.115C25.7957 12.0085 25.4653 11.7541 25.2632 11.4065C25.0611 11.0589 25.0035 10.6458 25.1028 10.2561Z" fill="black"/>
<path opacity="0.1" d="M24.5948 13.0877C24.6892 12.8996 24.8523 12.755 25.0503 12.6836C25.2483 12.6122 25.4661 12.6196 25.6589 12.7042C25.8516 12.7888 26.0045 12.9441 26.086 13.1381C26.1675 13.3322 26.1715 13.5501 26.097 13.747C26.0025 13.935 25.8395 14.0797 25.6415 14.1511C25.4435 14.2224 25.2257 14.2151 25.0329 14.1305C24.8402 14.0459 24.6873 13.8906 24.6058 13.6965C24.5242 13.5025 24.5203 13.2846 24.5948 13.0877Z" fill="black"/>
</g>
</svg>
