<svg width="121" height="99" viewBox="0 0 121 99" fill="none" xmlns="http://www.w3.org/2000/svg">
<path d="M58.5 83C78.6584 83 95 66.6584 95 46.5C95 26.3416 78.6584 10 58.5 10C38.3416 10 22 26.3416 22 46.5C22 66.6584 38.3416 83 58.5 83Z" fill="#D880A6"/>
<path opacity="0.4" d="M24.2908 59.1725C24.4473 59.8237 -6.70677 90.9381 1.32289 97.559C9.35255 104.18 43.1397 87.1845 71.9387 62.9804C100.738 38.7763 126.999 9.33514 119.795 1.59271C112.591 -6.14971 76.614 16.8514 76.614 16.8514L80.959 19.7006C80.959 19.7006 102.684 5.17449 109.636 10.8095C116.588 16.4444 96.9054 38.4778 69.21 59.5162C41.5146 80.5546 14.6796 95.3249 10.5257 89.5633C6.37185 83.8017 25.968 64.5723 25.968 64.5723L24.2908 59.1725Z" fill="black"/>
</svg>
