<svg width="456" height="541" viewBox="0 0 456 541" fill="none" xmlns="http://www.w3.org/2000/svg">
<path d="M132.011 196.757C131.243 195.838 86.7825 175.218 46.5149 205.943C9.50019 234.193 -3.34958 287.289 1.5677 288.564C7.58731 290.12 24.0791 264.788 55.7334 250.858C66.9621 245.919 84.8264 250.858 84.8264 250.858L132.011 196.757Z" fill="#D880A6"/>
<path opacity="0.1" d="M84.8481 250.847C79.5469 249.499 74.1065 248.773 68.6373 248.685C75.6187 234.074 88.6522 206.818 97.1143 189.159C117.032 189.343 131.622 196.249 132.065 196.724L84.8481 250.847Z" fill="black"/>
<path d="M205.251 283.139C206.029 284.047 219.106 331.285 182.199 365.976C148.276 397.879 93.7965 401.867 93.3426 396.809C92.7914 390.616 120.49 378.491 139.403 349.538C146.103 339.271 144.169 320.834 144.169 320.834L205.251 283.139Z" fill="#D880A6"/>
<path opacity="0.1" d="M206.97 319.105L143.574 337.553C144.422 332.022 144.607 326.409 144.126 320.834L205.208 283.139C205.694 283.658 210.212 299.317 206.97 319.105Z" fill="black"/>
<path d="M101.74 340.882L58.3164 289.666C58.3164 289.666 81.0116 228.941 134.788 188.154C161.666 167.804 193.147 152.577 221.43 142.505C260.39 128.542 292.984 124.521 298.031 130.444C303.078 136.366 293.708 167.902 273.628 204.073C259.049 230.238 238.862 258.855 214.394 282.047C165.351 328.475 101.74 340.882 101.74 340.882Z" fill="#C7C7C7"/>
<path d="M207.229 260.119C201.388 265.076 194.209 268.19 186.599 269.065C178.988 269.941 171.289 268.54 164.476 265.039C157.662 261.538 152.04 256.094 148.32 249.397C144.601 242.7 142.952 235.051 143.581 227.416C144.21 219.781 147.09 212.505 151.856 206.507C156.621 200.51 163.059 196.06 170.354 193.722C177.649 191.384 185.473 191.262 192.838 193.372C200.202 195.482 206.775 199.729 211.725 205.575C218.353 213.408 221.602 223.551 220.759 233.777C219.916 244.004 215.05 253.478 207.229 260.119Z" fill="#A6A6A6"/>
<path d="M209.347 256.521C203.505 261.473 196.326 264.582 188.718 265.455C181.109 266.327 173.412 264.924 166.601 261.422C159.79 257.92 154.17 252.477 150.453 245.782C146.735 239.086 145.086 231.438 145.715 223.806C146.344 216.173 149.222 208.898 153.985 202.901C158.748 196.904 165.183 192.454 172.475 190.114C179.768 187.774 187.59 187.649 194.954 189.755C202.317 191.861 208.89 196.103 213.843 201.944C220.481 209.779 223.737 219.929 222.894 230.163C222.051 240.397 217.178 249.878 209.347 256.521Z" fill="#D880A6"/>
<path d="M201.685 247.453C197.637 250.895 192.659 253.059 187.381 253.67C182.103 254.282 176.762 253.314 172.034 250.89C167.306 248.465 163.404 244.693 160.821 240.05C158.237 235.407 157.09 230.102 157.522 224.806C157.955 219.51 159.949 214.462 163.252 210.3C166.554 206.138 171.017 203.049 176.076 201.424C181.135 199.799 186.562 199.711 191.671 201.172C196.779 202.632 201.34 205.575 204.776 209.628C209.377 215.056 211.635 222.088 211.056 229.18C210.476 236.272 207.106 242.844 201.685 247.453Z" fill="white"/>
<path d="M201.696 247.453C199.161 249.611 196.248 251.279 193.104 252.371L171.489 250.609C168.565 249.024 165.962 246.905 163.816 244.363C162.241 242.517 160.928 240.462 159.915 238.256L206.494 242.05C205.149 244.062 203.535 245.88 201.696 247.453Z" fill="#EBEBEB"/>
<path d="M207.099 212.795L164.108 209.293C164.974 208.298 165.913 207.37 166.918 206.516C172.345 201.912 179.378 199.652 186.47 200.231C193.563 200.811 200.136 204.183 204.743 209.607C205.608 210.608 206.396 211.674 207.099 212.795Z" fill="#EBEBEB"/>
<path d="M209.434 236.484L157.991 232.28C157.821 231.492 157.694 230.694 157.613 229.892L210.179 234.215C209.974 234.949 209.715 235.717 209.434 236.484Z" fill="#EBEBEB"/>
<path d="M273.628 204.073L221.43 142.472C260.39 128.542 292.984 124.521 298.031 130.444C303.078 136.366 293.751 167.902 273.628 204.073Z" fill="#D880A6"/>
<path d="M236.776 147.703C236.436 147.993 236.017 148.176 235.573 148.227C235.129 148.279 234.679 148.198 234.281 147.995C233.883 147.791 233.555 147.474 233.337 147.083C233.12 146.692 233.023 146.246 233.059 145.8C233.096 145.355 233.263 144.93 233.541 144.58C233.819 144.229 234.195 143.97 234.621 143.833C235.047 143.697 235.503 143.69 235.933 143.813C236.363 143.936 236.747 144.184 237.035 144.526C237.421 144.982 237.61 145.572 237.562 146.168C237.513 146.763 237.231 147.315 236.776 147.703Z" fill="white"/>
<path d="M246.059 158.661C245.834 158.86 245.571 159.011 245.286 159.107C245.002 159.202 244.701 159.24 244.402 159.218C244.102 159.196 243.81 159.114 243.543 158.978C243.275 158.842 243.037 158.654 242.843 158.425C242.649 158.195 242.503 157.93 242.413 157.643C242.323 157.357 242.291 157.056 242.318 156.757C242.346 156.458 242.433 156.167 242.574 155.902C242.716 155.638 242.908 155.403 243.141 155.214C243.6 154.84 244.187 154.662 244.776 154.716C245.365 154.771 245.909 155.054 246.292 155.506C246.674 155.958 246.864 156.541 246.82 157.131C246.777 157.721 246.503 158.271 246.059 158.661Z" fill="white"/>
<path d="M255.343 169.609C254.999 169.889 254.581 170.062 254.14 170.105C253.699 170.149 253.255 170.063 252.863 169.856C252.471 169.649 252.148 169.332 251.935 168.943C251.722 168.555 251.628 168.112 251.665 167.67C251.702 167.229 251.868 166.808 252.142 166.46C252.416 166.112 252.787 165.852 253.208 165.713C253.629 165.574 254.081 165.562 254.509 165.678C254.936 165.795 255.32 166.034 255.613 166.367C255.815 166.594 255.968 166.861 256.064 167.149C256.16 167.438 256.197 167.743 256.172 168.046C256.146 168.349 256.06 168.644 255.917 168.913C255.775 169.181 255.579 169.418 255.343 169.609Z" fill="white"/>
<path d="M264.637 180.568C264.294 180.849 263.876 181.023 263.436 181.068C262.995 181.114 262.55 181.028 262.158 180.823C261.765 180.618 261.441 180.301 261.227 179.914C261.013 179.526 260.917 179.083 260.953 178.641C260.988 178.2 261.152 177.778 261.426 177.429C261.699 177.08 262.069 176.819 262.489 176.679C262.909 176.539 263.362 176.525 263.79 176.64C264.218 176.755 264.603 176.993 264.896 177.325C265.097 177.553 265.25 177.819 265.347 178.107C265.443 178.395 265.48 178.699 265.456 179.002C265.431 179.304 265.346 179.599 265.206 179.868C265.065 180.137 264.872 180.375 264.637 180.568Z" fill="white"/>
<path d="M273.974 191.526C273.634 191.815 273.215 191.996 272.771 192.047C272.328 192.098 271.879 192.016 271.482 191.812C271.085 191.608 270.757 191.291 270.54 190.9C270.323 190.51 270.227 190.065 270.263 189.62C270.299 189.175 270.466 188.75 270.744 188.4C271.021 188.05 271.396 187.79 271.82 187.653C272.245 187.516 272.701 187.508 273.131 187.63C273.56 187.752 273.944 187.998 274.234 188.338C274.426 188.564 274.572 188.826 274.664 189.109C274.755 189.392 274.79 189.69 274.765 189.986C274.741 190.282 274.659 190.571 274.523 190.835C274.388 191.099 274.201 191.334 273.974 191.526Z" fill="white"/>
<path d="M70.7987 288.467C70.3399 288.84 69.7529 289.019 69.1638 288.964C68.5747 288.91 68.0306 288.626 67.6484 288.174C67.2662 287.723 67.0764 287.139 67.1198 286.549C67.1633 285.959 67.4365 285.41 67.8807 285.019C68.1062 284.821 68.3689 284.67 68.6535 284.574C68.9381 284.478 69.2389 284.441 69.5383 284.463C69.8377 284.485 70.1297 284.566 70.3973 284.702C70.6648 284.839 70.9025 285.027 71.0965 285.256C71.2904 285.485 71.4368 285.751 71.5269 286.037C71.6171 286.323 71.6492 286.625 71.6215 286.924C71.5937 287.223 71.5067 287.513 71.3654 287.778C71.2241 288.043 71.0315 288.277 70.7987 288.467Z" fill="#A6A6A6"/>
<path d="M80.1362 299.425C79.7936 299.706 79.3758 299.881 78.935 299.926C78.4941 299.971 78.0496 299.886 77.6569 299.681C77.2641 299.475 76.9404 299.159 76.7262 298.771C76.5119 298.383 76.4165 297.941 76.4518 297.499C76.4872 297.057 76.6517 296.636 76.9249 296.287C77.1982 295.938 77.568 295.677 77.9884 295.537C78.4088 295.396 78.8612 295.383 79.2892 295.498C79.7172 295.613 80.102 295.851 80.3955 296.183C80.5966 296.411 80.7498 296.676 80.8459 296.964C80.942 297.252 80.9791 297.557 80.9549 297.859C80.9307 298.162 80.8457 298.457 80.705 298.726C80.5643 298.995 80.3709 299.233 80.1362 299.425Z" fill="#A6A6A6"/>
<path d="M89.4195 310.405C89.0789 310.694 88.6603 310.875 88.2168 310.926C87.7732 310.977 87.3245 310.895 86.9274 310.691C86.5303 310.487 86.2025 310.17 85.9855 309.78C85.7685 309.39 85.672 308.944 85.7082 308.499C85.7444 308.054 85.9117 307.63 86.1889 307.28C86.4661 306.93 86.8409 306.67 87.2657 306.532C87.6906 306.395 88.1466 306.387 88.5761 306.509C89.0056 306.631 89.3894 306.877 89.6789 307.217C89.8716 307.443 90.0178 307.705 90.109 307.988C90.2003 308.271 90.2349 308.569 90.2108 308.865C90.1867 309.161 90.1044 309.45 89.9686 309.714C89.8328 309.978 89.6462 310.213 89.4195 310.405Z" fill="#A6A6A6"/>
<path d="M98.703 321.331C98.3603 321.613 97.9426 321.787 97.5017 321.832C97.0609 321.878 96.6164 321.792 96.2236 321.587C95.8309 321.382 95.5072 321.065 95.2929 320.677C95.0787 320.289 94.9833 319.847 95.0186 319.405C95.054 318.963 95.2185 318.542 95.4917 318.193C95.7649 317.844 96.1348 317.583 96.5552 317.443C96.9756 317.303 97.428 317.289 97.856 317.404C98.284 317.519 98.6688 317.757 98.9623 318.089C99.1634 318.317 99.3166 318.582 99.4127 318.87C99.5088 319.158 99.5459 319.463 99.5216 319.765C99.4974 320.068 99.4125 320.363 99.2718 320.632C99.1311 320.901 98.9377 321.139 98.703 321.331Z" fill="#A6A6A6"/>
<path d="M107.986 332.279C107.643 332.559 107.224 332.732 106.783 332.776C106.342 332.819 105.898 332.733 105.506 332.526C105.114 332.319 104.792 332.002 104.579 331.613C104.366 331.225 104.272 330.782 104.309 330.34C104.346 329.899 104.512 329.478 104.786 329.13C105.06 328.782 105.431 328.522 105.852 328.383C106.272 328.244 106.725 328.232 107.152 328.348C107.58 328.465 107.964 328.704 108.256 329.037C108.458 329.264 108.612 329.531 108.708 329.819C108.804 330.108 108.841 330.413 108.815 330.716C108.79 331.019 108.704 331.314 108.561 331.583C108.419 331.851 108.223 332.088 107.986 332.279Z" fill="#A6A6A6"/>
<path opacity="0.2" d="M295.589 128.92C265.523 131.081 213.454 149.281 158.672 192.25C118.188 223.991 88.6522 279.54 74.8839 309.206L58.3164 289.666C58.3164 289.666 81.0116 228.941 134.788 188.154C161.666 167.804 193.147 152.577 221.43 142.505C256.348 129.979 286.143 125.44 295.589 128.92Z" fill="white"/>
<path d="M82.3408 349.225L47.0336 307.574L60.7696 292.563L99.3946 338.126L82.3408 349.225Z" fill="#D880A6"/>
<path opacity="0.1" d="M99.3946 338.126L91.0839 343.53L55.5173 298.301L60.7696 292.574L99.3946 338.126Z" fill="black"/>
<path d="M273.077 209.639L256.942 208.558L249.355 223.926L250.047 206.807L235.371 200.021L251.668 200.183L259.082 185.733L258.693 201.966L273.077 209.639Z" fill="#FCFCFC"/>
<path d="M455.792 413.906L439.657 412.825L432.07 428.193L432.762 411.074L418.086 404.287L434.383 404.449L441.797 390L441.408 406.232L455.792 413.906Z" fill="#FCFCFC"/>
<path d="M269.111 150.037L260.087 149.443L255.851 158.035L256.24 148.459L248.037 144.666L257.147 144.752L261.287 136.68L261.07 145.758L269.111 150.037Z" fill="#FCFCFC"/>
<path d="M196.141 333.241L187.127 332.636L182.891 341.227L183.269 331.663L175.067 327.87L184.177 327.956L188.327 319.883L188.1 328.961L196.141 333.241Z" fill="#FCFCFC"/>
<path d="M35.632 253.538L26.608 252.933L22.3716 261.524L22.7607 251.96L14.558 248.167L23.6685 248.253L27.8076 240.18L27.5915 249.247L35.632 253.538Z" fill="#FCFCFC"/>
<path d="M208.16 13.3577L199.136 12.7525L194.9 21.3442L195.289 11.7799L187.086 7.98653L196.196 8.07299L200.336 0L200.119 9.06725L208.16 13.3577Z" fill="#FCFCFC"/>
<path opacity="0.6" d="M74.5812 339.931C58.2083 350.965 43.7591 365.047 33.2112 381.873C22.3886 398.785 16.274 418.278 15.4982 438.341C15.2388 448.511 16.4806 458.664 19.1835 468.472C21.9646 478.462 26.1723 487.998 31.6766 496.786C37.3129 505.732 44.072 513.918 51.7888 521.146C59.643 528.493 68.2332 535.012 77.4235 540.599C67.511 536.069 58.0945 530.524 49.3248 524.053C40.4498 517.475 32.4589 509.782 25.5489 501.163C11.2252 483.328 2.4945 461.655 0.454568 438.871C-1.57719 415.84 3.28605 392.205 13.3584 371.12C23.4307 350.035 38.4851 331.306 56.2738 316.003L74.5812 339.931Z" fill="#D880A6"/>
<path d="M46.5797 365.036L40.1386 366.225L38.7012 373.012L37.2639 366.225L30.8228 365.025L37.2422 363.458L38.7012 357.049L40.171 363.458L46.5797 365.036Z" fill="white"/>
<path d="M22.8795 492.161L19.2807 492.831L18.481 496.624L17.6704 492.831L14.0717 492.161L17.6596 491.286L18.481 487.708L19.3023 491.286L22.8795 492.161Z" fill="white"/>
<path d="M20.9451 459.231L17.3463 459.891L16.5466 463.695L15.7468 459.891L12.1372 459.231L15.7252 458.356L16.5466 454.768L17.3679 458.356L20.9451 459.231Z" fill="white"/>
<path d="M41.8245 343.865L38.2257 344.535L37.4152 348.328L36.6155 344.535L33.0167 343.865L36.6047 342.989L37.4152 339.412L38.2365 342.989L41.8245 343.865Z" fill="white"/>
<path d="M31.3956 500.375C31.1666 500.437 30.9645 500.573 30.8204 500.761C30.6763 500.95 30.5983 501.18 30.5983 501.417C30.5983 501.655 30.6763 501.885 30.8204 502.074C30.9645 502.262 31.1666 502.398 31.3956 502.46C31.6245 502.398 31.8266 502.262 31.9707 502.074C32.1148 501.885 32.1929 501.655 32.1929 501.417C32.1929 501.18 32.1148 500.95 31.9707 500.761C31.8266 500.573 31.6245 500.437 31.3956 500.375Z" fill="white"/>
<path d="M61.1802 338.785C60.9513 338.847 60.7492 338.983 60.6051 339.172C60.461 339.36 60.3829 339.591 60.3829 339.828C60.3829 340.065 60.461 340.296 60.6051 340.484C60.7492 340.673 60.9513 340.809 61.1802 340.871C61.4092 340.809 61.6113 340.673 61.7554 340.484C61.8995 340.296 61.9775 340.065 61.9775 339.828C61.9775 339.591 61.8995 339.36 61.7554 339.172C61.6113 338.983 61.4092 338.847 61.1802 338.785Z" fill="white"/>
<path d="M5.0044 431.846C4.77546 431.908 4.57334 432.044 4.42925 432.233C4.28516 432.421 4.20709 432.652 4.20709 432.889C4.20709 433.126 4.28516 433.357 4.42925 433.545C4.57334 433.734 4.77546 433.87 5.0044 433.932C5.23334 433.87 5.43545 433.734 5.57954 433.545C5.72363 433.357 5.8017 433.126 5.8017 432.889C5.8017 432.652 5.72363 432.421 5.57954 432.233C5.43545 432.044 5.23334 431.908 5.0044 431.846Z" fill="white"/>
<path d="M29.5368 494.938C29.3559 494.96 29.1892 495.048 29.0684 495.184C28.9475 495.321 28.8807 495.497 28.8807 495.679C28.8807 495.861 28.9475 496.037 29.0684 496.173C29.1892 496.31 29.3559 496.397 29.5368 496.419C29.7178 496.397 29.8844 496.31 30.0053 496.173C30.1262 496.037 30.1929 495.861 30.1929 495.679C30.1929 495.497 30.1262 495.321 30.0053 495.184C29.8844 495.048 29.7178 494.96 29.5368 494.938Z" fill="white"/>
<path d="M4.62613 395.382C4.43122 395.382 4.2443 395.46 4.10649 395.598C3.96867 395.735 3.89124 395.922 3.89124 396.117C3.89124 396.312 3.96867 396.499 4.10649 396.637C4.2443 396.775 4.43122 396.852 4.62613 396.852C4.82103 396.852 5.00796 396.775 5.14577 396.637C5.28359 396.499 5.36102 396.312 5.36102 396.117C5.36102 395.922 5.28359 395.735 5.14577 395.598C5.00796 395.46 4.82103 395.382 4.62613 395.382Z" fill="white"/>
<path d="M12.1371 470.882C11.6309 470.919 11.1574 471.146 10.8119 471.518C10.4663 471.89 10.2743 472.379 10.2743 472.886C10.2743 473.394 10.4663 473.883 10.8119 474.255C11.1574 474.627 11.6309 474.854 12.1371 474.891C12.6434 474.854 13.1168 474.627 13.4624 474.255C13.8079 473.883 14 473.394 14 472.886C14 472.379 13.8079 471.89 13.4624 471.518C13.1168 471.146 12.6434 470.919 12.1371 470.882Z" fill="white"/>
<path d="M14.0717 388.596C13.5414 388.596 13.0329 388.806 12.6579 389.181C12.283 389.556 12.0723 390.065 12.0723 390.595C12.0723 391.125 12.283 391.634 12.6579 392.009C13.0329 392.384 13.5414 392.594 14.0717 392.594C14.6019 392.594 15.1104 392.384 15.4854 392.009C15.8603 391.634 16.071 391.125 16.071 390.595C16.071 390.065 15.8603 389.556 15.4854 389.181C15.1104 388.806 14.6019 388.596 14.0717 388.596Z" fill="white"/>
</svg>
