<svg width="168" height="172" viewBox="0 0 168 172" fill="none" xmlns="http://www.w3.org/2000/svg">
<path d="M24.9809 41.6897L34.476 32.1946C35.1262 31.5482 35.6423 30.7797 35.9944 29.9332C36.3465 29.0866 36.5278 28.1788 36.5278 27.262C36.5278 26.3452 36.3465 25.4374 35.9944 24.5909C35.6423 23.7444 35.1262 22.9758 34.476 22.3295V22.3295C33.8288 21.6807 33.06 21.166 32.2136 20.8148C31.3672 20.4636 30.4598 20.2828 29.5435 20.2828C28.6271 20.2828 27.7197 20.4636 26.8733 20.8148C26.0269 21.166 25.2581 21.6807 24.6109 22.3295L15.1158 31.8246C14.4655 32.471 13.9495 33.2395 13.5974 34.086C13.2453 34.9326 13.064 35.8404 13.064 36.7572C13.064 37.674 13.2453 38.5818 13.5974 39.4283C13.9495 40.2748 14.4655 41.0434 15.1158 41.6897V41.6897C15.763 42.3385 16.5318 42.8532 17.3782 43.2044C18.2246 43.5556 19.1319 43.7364 20.0483 43.7364C20.9647 43.7364 21.8721 43.5556 22.7185 43.2044C23.5649 42.8532 24.3337 42.3385 24.9809 41.6897V41.6897Z" fill="#EBEBEB"/>
<path d="M154.682 135.815L160.712 123.817C161.54 122.166 161.679 120.255 161.099 118.503C160.518 116.75 159.266 115.299 157.617 114.469V114.469C156.8 114.058 155.91 113.811 154.998 113.744C154.086 113.677 153.17 113.791 152.301 114.078C151.433 114.366 150.63 114.822 149.938 115.42C149.247 116.018 148.68 116.747 148.27 117.565L142.24 129.563C141.828 130.38 141.582 131.27 141.515 132.182C141.448 133.094 141.561 134.01 141.849 134.879C142.136 135.747 142.592 136.55 143.19 137.242C143.788 137.933 144.517 138.5 145.335 138.91V138.91C146.152 139.322 147.042 139.568 147.954 139.635C148.866 139.702 149.782 139.589 150.651 139.301C151.519 139.014 152.322 138.558 153.014 137.96C153.705 137.361 154.272 136.633 154.682 135.815V135.815Z" fill="#EBEBEB"/>
<path d="M71.5441 14.8813L78.684 13.8578C80.5117 13.5953 82.1605 12.6178 83.268 11.1403C84.3756 9.66284 84.8513 7.80612 84.5907 5.97808V5.97808C84.4622 5.07237 84.1563 4.20093 83.6905 3.41362C83.2248 2.62631 82.6082 1.93862 81.8763 1.38994C81.1443 0.84126 80.3113 0.442336 79.425 0.216075C78.5386 -0.0101861 77.6163 -0.0593344 76.7109 0.0713783L69.5711 1.09487C68.6654 1.22334 67.7939 1.52925 67.0066 1.99503C66.2193 2.46082 65.5316 3.07733 64.9829 3.80929C64.4342 4.54125 64.0354 5.37423 63.8091 6.26059C63.5828 7.14694 63.5336 8.06925 63.6644 8.97463V8.97463C63.9269 10.8024 64.9043 12.4511 66.3818 13.5587C67.8593 14.6662 69.7161 15.1419 71.5441 14.8813V14.8813Z" fill="#EBEBEB"/>
<path d="M14.8691 109.105L13.8456 101.965C13.7172 101.06 13.4113 100.188 12.9455 99.401C12.4797 98.6137 11.8632 97.926 11.1312 97.3773C10.3993 96.8286 9.56627 96.4297 8.67992 96.2035C7.79357 95.9772 6.87129 95.928 5.9659 96.0587V96.0587C5.06181 96.1872 4.19194 96.4928 3.40612 96.9579C2.6203 97.4231 1.93396 98.0387 1.38642 98.7695C0.838884 99.5003 0.440901 100.332 0.215267 101.217C-0.0103675 102.102 -0.0592185 103.022 0.071511 103.926L1.08268 111.078C1.34834 112.905 2.32652 114.551 3.80321 115.658C5.27991 116.765 7.13492 117.242 8.96242 116.985V116.985C10.7902 116.722 12.4389 115.745 13.5465 114.268C14.654 112.79 15.1298 110.933 14.8691 109.105V109.105Z" fill="#EBEBEB"/>
<path d="M168 98.3523V82.5435C168 81.0725 166.807 79.8799 165.336 79.8799H156.741C155.27 79.8799 154.078 81.0725 154.078 82.5435V98.3523C154.078 99.8234 155.27 101.016 156.741 101.016H165.336C166.807 101.016 168 99.8234 168 98.3523Z" fill="#EBEBEB"/>
<path d="M58.6208 169.628L65.588 171.49C66.4714 171.726 67.3928 171.786 68.2994 171.666C69.206 171.546 70.0801 171.249 70.8715 170.791C71.663 170.333 72.3564 169.723 72.9119 168.996C73.4674 168.27 73.8742 167.441 74.109 166.557V166.557C74.3457 165.673 74.4059 164.751 74.2861 163.843C74.1663 162.936 73.8689 162.061 73.4108 161.269C72.9528 160.476 72.343 159.782 71.6165 159.225C70.8899 158.668 70.0608 158.26 69.1765 158.024L62.2092 156.162C61.3251 155.925 60.4029 155.865 59.4954 155.985C58.588 156.105 57.713 156.402 56.9206 156.86C56.1281 157.318 55.4337 157.928 54.8769 158.654C54.3202 159.381 53.9121 160.21 53.6759 161.094V161.094C53.2051 162.882 53.4609 164.782 54.3875 166.381C55.3141 167.98 56.8361 169.148 58.6208 169.628V169.628Z" fill="#EBEBEB"/>
<path d="M82.741 167.753C127.104 167.753 163.067 131.79 163.067 87.4267C163.067 43.0636 127.104 7.10022 82.741 7.10022C38.3778 7.10022 2.41445 43.0636 2.41445 87.4267C2.41445 131.79 38.3778 167.753 82.741 167.753Z" fill="#EBEBEB"/>
<path d="M111.966 39.7784C112.168 43.6365 111.127 47.4576 108.994 50.6793C106.841 53.999 103.822 56.6681 100.264 58.3987C96.6046 60.2357 92.3786 60.5934 88.4627 59.3976C84.7522 58.2214 81.5741 55.7767 79.4855 52.492C82.341 54.6059 85.6305 56.0591 89.1163 56.7463C90.7477 57.0363 92.4174 57.0363 94.0488 56.7463C95.6764 56.4951 97.2539 55.9873 98.7224 55.2419C99.4746 54.872 100.239 54.465 100.979 54.0088C101.719 53.5525 102.409 53.0839 103.063 52.5413C104.42 51.5127 105.661 50.3383 106.762 49.0392C109.082 46.3199 110.85 43.1742 111.966 39.7784V39.7784Z" fill="#C7C7C7"/>
<path d="M83.0863 44.4025C82.7299 41.7244 83.3233 39.0061 84.7633 36.7201C86.2071 34.3443 88.3049 32.4348 90.8057 31.2203C92.0947 30.5722 93.499 30.1851 94.9381 30.0814C96.3771 29.9777 97.8224 30.1594 99.191 30.6161C101.775 31.4946 103.925 33.3306 105.196 35.7459C103.163 34.4893 100.899 33.6509 98.5375 33.2797C96.419 33.0294 94.2738 33.4112 92.3718 34.3771C88.1434 36.4558 84.8353 40.0275 83.0863 44.4025V44.4025Z" fill="#C7C7C7"/>
<path d="M55.8832 99.5732C56.8733 102.018 56.9433 104.739 56.0805 107.231C55.2352 109.82 53.6171 112.088 51.4439 113.73C50.3356 114.595 49.0651 115.229 47.7075 115.596C46.35 115.962 44.9328 116.053 43.5395 115.863C40.9163 115.501 38.5188 114.184 36.8066 112.164C39.0158 112.893 41.3382 113.219 43.6628 113.125C45.7208 112.977 47.6874 112.217 49.3106 110.943C51.0347 109.64 52.4847 108.01 53.5773 106.146C54.7254 104.107 55.5059 101.882 55.8832 99.5732V99.5732Z" fill="#C7C7C7"/>
<path d="M39.2483 108.686C38.805 107.871 38.5287 106.976 38.4355 106.052C38.3424 105.129 38.4342 104.197 38.7057 103.31C39.241 101.433 40.3756 99.7828 41.9365 98.6113C42.7363 97.9793 43.6604 97.5231 44.6484 97.2724C45.6364 97.0217 46.6662 96.9821 47.6706 97.1562C48.5918 97.315 49.4712 97.6592 50.2555 98.1679C51.0398 98.6766 51.7126 99.3393 52.2332 100.116C50.6902 99.814 49.111 99.7433 47.5473 99.9061C46.2741 100.092 45.0712 100.606 44.0575 101.398C41.6991 103.235 40.0094 105.795 39.2483 108.686Z" fill="#C7C7C7"/>
<path d="M27.0772 81.6926C27.7866 82.3559 28.3553 83.1553 28.7493 84.0429C29.1433 84.9306 29.3547 85.8884 29.3709 86.8595C29.3891 87.9095 29.1966 88.9525 28.8048 89.9268C28.4129 90.9011 27.8297 91.7869 27.0896 92.5319C26.3294 93.2963 25.4033 93.8752 24.3833 94.2238C23.3632 94.5724 22.2765 94.6813 21.2075 94.5419C19.2917 94.3277 17.5094 93.4562 16.164 92.0757C17.8216 92.1389 19.4815 92.0439 21.1212 91.792C22.4228 91.5985 23.6284 90.9935 24.5616 90.0656C25.5219 89.0915 26.2216 87.8914 26.5963 86.5759C27.0273 84.9862 27.1898 83.3358 27.0772 81.6926V81.6926Z" fill="#C7C7C7"/>
<path d="M17.1258 89.4985C16.5417 89.1005 16.0575 88.5729 15.711 87.9568C15.3644 87.3408 15.165 86.6529 15.1281 85.9471C15.0779 85.1714 15.1939 84.394 15.4682 83.6667C15.7426 82.9394 16.1689 82.2791 16.7188 81.7298C17.2857 81.159 17.9818 80.7333 18.7481 80.4885C19.5144 80.2438 20.3284 80.1874 21.1211 80.324C21.804 80.4263 22.4597 80.6633 23.0503 81.021C23.6409 81.3787 24.1546 81.8502 24.5616 82.408C23.4221 82.562 22.2935 82.7885 21.1828 83.0862C20.4386 83.2732 19.7603 83.6614 19.2221 84.2084C18.6456 84.7924 18.189 85.4836 17.878 86.243C17.4738 87.2869 17.2205 88.3831 17.1258 89.4985V89.4985Z" fill="#C7C7C7"/>
<path d="M137.147 57.9055C137.24 58.8719 137.135 59.8472 136.838 60.7716C136.541 61.6961 136.059 62.5502 135.421 63.2819C134.738 64.079 133.903 64.7317 132.965 65.2018C132.027 65.6719 131.005 65.9499 129.958 66.0195C128.882 66.0853 127.805 65.9027 126.81 65.4857C125.816 65.0688 124.931 64.4287 124.224 63.6149C122.929 62.1925 122.163 60.3683 122.053 58.448C123.272 59.595 124.598 60.6231 126.012 61.5185C127.111 62.2275 128.404 62.5765 129.711 62.5174C131.072 62.4311 132.39 62.0073 133.546 61.2842C134.922 60.3615 136.139 59.2202 137.147 57.9055Z" fill="#C7C7C7"/>
<path d="M124.52 57.1286C124.349 56.4422 124.339 55.7254 124.49 55.0345C124.642 54.3435 124.952 53.697 125.395 53.1456C125.873 52.5345 126.475 52.0316 127.162 51.6703C127.848 51.3089 128.604 51.0973 129.378 51.0493C130.18 50.9927 130.983 51.1328 131.718 51.4573C132.453 51.7818 133.097 52.2809 133.596 52.9113C134.048 53.4376 134.39 54.0493 134.602 54.7101C134.814 55.3709 134.891 56.0675 134.829 56.7587C133.876 56.1059 132.879 55.5207 131.844 55.0076C131.166 54.6526 130.401 54.4946 129.637 54.5514C128.819 54.6006 128.019 54.8101 127.282 55.168C126.273 55.6872 125.343 56.3473 124.52 57.1286Z" fill="#C7C7C7"/>
<path d="M92.1128 112.484C95.3241 113.937 98.8947 114.404 102.372 113.825C105.849 113.246 109.075 111.648 111.643 109.232C114.21 106.817 116.002 103.693 116.791 100.258C117.581 96.8228 117.332 93.2304 116.077 89.9366C114.822 86.6427 112.617 83.7959 109.741 81.7571C106.866 79.7183 103.45 78.5794 99.9263 78.4849C96.4027 78.3904 92.9304 79.3446 89.9499 81.2263C86.9693 83.1081 84.6148 85.8326 83.1849 89.0544C81.2661 93.3458 81.1286 98.2233 82.8024 102.616C84.4763 107.009 87.8248 110.558 92.1128 112.484V112.484Z" fill="#DBDBDB"/>
<path d="M107.675 87.8583C109.987 88.8906 112.021 90.4557 113.611 92.4254C115.202 94.3952 116.303 96.7136 116.825 99.1908C117.307 96.2532 117.042 93.2413 116.053 90.4332C115.064 87.6252 113.384 85.1115 111.167 83.1243C108.951 81.1371 106.269 79.7404 103.37 79.0632C100.471 78.3859 97.4482 78.45 94.5805 79.2494C91.7128 80.0489 89.0927 81.5579 86.9622 83.6373C84.8317 85.7166 83.2594 88.2992 82.3904 91.1466C81.5215 93.994 81.3839 97.0144 81.9905 99.929C82.597 102.844 83.9281 105.558 85.8608 107.823C84.8594 104.855 84.743 101.661 85.5256 98.6282C86.3082 95.5957 87.956 92.8564 90.2683 90.7441C92.5806 88.6318 95.4574 87.2378 98.5481 86.732C101.639 86.2262 104.81 86.6304 107.675 87.8953V87.8583Z" fill="#C7C7C7"/>
<path d="M123.903 99.2156C123.995 103.937 122.625 108.571 119.982 112.484C117.306 116.491 113.612 119.713 109.278 121.819C104.849 124.056 99.7348 124.523 94.9737 123.126C90.4281 121.731 86.4897 118.836 83.8015 114.913C87.256 117.661 91.3061 119.562 95.6272 120.462C96.6598 120.634 97.7015 120.746 98.7471 120.795C99.78 120.806 100.812 120.724 101.83 120.549C103.885 120.239 105.879 119.606 107.737 118.674C108.686 118.194 109.636 117.688 110.548 117.145C111.461 116.603 112.349 115.999 113.162 115.308C114.864 114.009 116.412 112.52 117.774 110.869C120.594 107.445 122.68 103.479 123.903 99.2156Z" fill="#C7C7C7"/>
<path d="M143.35 105.973C144.63 106.279 145.972 106.197 147.206 105.739C148.44 105.28 149.511 104.466 150.281 103.398C151.052 102.331 151.488 101.059 151.534 99.7434C151.581 98.4279 151.236 97.1281 150.543 96.0089C149.85 94.8897 148.84 94.0014 147.642 93.4568C146.443 92.9122 145.11 92.7357 143.811 92.9498C142.512 93.1638 141.306 93.7587 140.346 94.6591C139.386 95.5594 138.714 96.7247 138.417 98.007C138.017 99.7173 138.312 101.516 139.237 103.01C140.161 104.503 141.64 105.569 143.35 105.973V105.973Z" fill="#DBDBDB"/>
<path d="M147.296 95.8368C148.215 96.0527 149.07 96.4824 149.792 97.0909C150.514 97.6994 151.083 98.4696 151.451 99.3389C151.42 98.2288 151.11 97.1444 150.549 96.1859C149.989 95.2273 149.196 94.4255 148.243 93.8545C147.291 93.2834 146.21 92.9616 145.1 92.9186C143.99 92.8757 142.888 93.1131 141.894 93.6088C140.9 94.1045 140.047 94.8426 139.414 95.755C138.781 96.6673 138.388 97.7245 138.271 98.8289C138.155 99.9332 138.318 101.049 138.747 102.074C139.175 103.098 139.855 103.998 140.723 104.691C139.97 103.381 139.745 101.833 140.094 100.362C140.45 98.8078 141.408 97.4579 142.758 96.6094C144.109 95.7608 145.741 95.4829 147.296 95.8368Z" fill="#C7C7C7"/>
<path d="M154.041 98.821C154.504 100.549 154.387 102.382 153.708 104.037C153.033 105.74 151.897 107.222 150.428 108.316C148.925 109.471 147.035 110.005 145.15 109.808C143.357 109.601 141.698 108.757 140.476 107.428C141.962 108.106 143.578 108.451 145.212 108.439C146.726 108.387 148.185 107.856 149.38 106.923C150.657 105.951 151.728 104.734 152.528 103.342C153.328 101.951 153.843 100.414 154.041 98.821Z" fill="#C7C7C7"/>
<path d="M97.7852 148.96C99.6497 149.07 101.505 148.624 103.115 147.678C104.726 146.732 106.019 145.33 106.832 143.648C107.645 141.967 107.94 140.082 107.681 138.232C107.421 136.383 106.619 134.652 105.374 133.259C104.13 131.866 102.501 130.874 100.692 130.408C98.8835 129.942 96.9773 130.023 95.215 130.642C93.4528 131.26 91.9137 132.388 90.7929 133.882C89.672 135.376 89.0199 137.169 88.919 139.033C88.849 140.268 89.0229 141.503 89.4306 142.67C89.8384 143.837 90.472 144.912 91.2954 145.834C92.1188 146.756 93.1157 147.506 94.2293 148.043C95.3428 148.579 96.5511 148.891 97.7852 148.96V148.96Z" fill="#DBDBDB"/>
<path d="M100.819 133.817C102.16 133.888 103.465 134.276 104.627 134.949C105.789 135.622 106.774 136.561 107.502 137.689C107.188 136.141 106.488 134.698 105.468 133.491C104.448 132.285 103.14 131.356 101.665 130.789C100.191 130.222 98.5973 130.037 97.032 130.249C95.4666 130.461 93.98 131.064 92.7095 132.003C91.4391 132.942 90.4258 134.186 89.7634 135.62C89.101 137.054 88.8109 138.632 88.9198 140.208C89.0287 141.784 89.5332 143.307 90.3866 144.636C91.2399 145.966 92.4147 147.058 93.8022 147.813C92.4229 146.165 91.7259 144.052 91.8539 141.907C91.9107 140.787 92.1877 139.689 92.6692 138.676C93.1506 137.663 93.8269 136.755 94.6595 136.004C95.4921 135.253 96.4647 134.673 97.5215 134.298C98.5784 133.922 99.6988 133.759 100.819 133.817V133.817Z" fill="#C7C7C7"/>
<path d="M111.004 136.358C111.916 138.681 112.101 141.227 111.535 143.658C110.971 146.141 109.758 148.43 108.02 150.292C106.252 152.224 103.823 153.421 101.213 153.646C98.707 153.815 96.216 153.142 94.1351 151.735C96.3607 152.464 98.7274 152.654 101.041 152.29C103.236 151.872 105.236 150.751 106.738 149.096C108.3 147.434 109.49 145.458 110.228 143.3C110.966 141.065 111.23 138.701 111.004 136.358Z" fill="#C7C7C7"/>
<path d="M55.76 57.9671C51.5056 64.4658 42.1091 65.8469 34.7966 61.05C27.4841 56.2531 24.9316 47.0909 29.1982 40.5923C33.4649 34.0936 42.8367 32.7125 50.1615 37.5094C57.4864 42.3063 60.0019 51.4685 55.76 57.9671Z" fill="#DBDBDB"/>
<path d="M32.4043 46.6839C31.3015 48.4416 30.66 50.4491 30.5393 52.5206C30.4186 54.5921 30.8226 56.6605 31.7138 58.5343C26.7812 53.4785 25.5481 46.092 29.1735 40.5799C33.4155 34.0936 42.812 32.7125 50.1368 37.5094C52.5949 39.0259 54.5995 41.1759 55.9403 43.734C57.2812 46.2921 57.9089 49.1638 57.7576 52.0481C56.6593 48.6725 54.4234 45.7829 51.4316 43.8724C44.7974 39.5317 36.2641 40.7772 32.4043 46.6839Z" fill="#C7C7C7"/>
<path d="M60.9391 47.2388C62.0319 48.9134 62.7811 50.7885 63.1431 52.7551C63.5051 54.7217 63.4727 56.7406 63.0478 58.6946C62.5828 60.7317 61.6779 62.6425 60.3965 64.293C59.1256 65.9639 57.5683 67.396 55.7969 68.5227C53.9606 69.5526 51.9497 70.234 49.8656 70.5327C47.8504 70.785 45.8084 70.7268 43.8109 70.3601C39.9491 69.6847 36.3023 68.1042 33.1689 65.7481C36.7326 66.785 40.4016 67.4179 44.1068 67.6348C47.5303 67.8854 50.9539 67.1493 53.9719 65.5138C55.4106 64.638 56.694 63.5296 57.77 62.2337C58.8964 60.9634 59.7785 59.4961 60.3719 57.9054C61.5325 54.4686 61.7287 50.7793 60.9391 47.2388V47.2388Z" fill="#C7C7C7"/>
</svg>
